<svg width="410" height="51" viewBox="0 0 410 51" fill="none" xmlns="http://www.w3.org/2000/svg">
<path d="M0.703613 1.85153C0.703613 1.06384 1.34216 0.425293 2.12985 0.425293C2.91754 0.425293 3.55608 1.06384 3.55608 1.85153C3.55608 2.63922 2.91754 3.27776 2.12985 3.27776C1.34216 3.27776 0.703613 2.63922 0.703613 1.85153Z" fill="white"/>
<path d="M5.93701 1.85153C5.93701 1.06384 6.57556 0.425293 7.36325 0.425293C8.15093 0.425293 8.78948 1.06384 8.78948 1.85153C8.78948 2.63922 8.15093 3.27776 7.36325 3.27776C6.57556 3.27776 5.93701 2.63922 5.93701 1.85153Z" fill="white"/>
<path d="M11.1704 1.85153C11.1704 1.06384 11.809 0.425293 12.5966 0.425293C13.3843 0.425293 14.0229 1.06384 14.0229 1.85153C14.0229 2.63922 13.3843 3.27776 12.5966 3.27776C11.809 3.27776 11.1704 2.63922 11.1704 1.85153Z" fill="white"/>
<path d="M16.4033 1.85153C16.4033 1.06384 17.0419 0.425293 17.8296 0.425293C18.6172 0.425293 19.2558 1.06384 19.2558 1.85153C19.2558 2.63922 18.6172 3.27776 17.8296 3.27776C17.0419 3.27776 16.4033 2.63922 16.4033 1.85153Z" fill="white"/>
<path d="M21.6367 1.85153C21.6367 1.06384 22.2753 0.425293 23.063 0.425293C23.8506 0.425293 24.4892 1.06384 24.4892 1.85153C24.4892 2.63922 23.8506 3.27776 23.063 3.27776C22.2753 3.27776 21.6367 2.63922 21.6367 1.85153Z" fill="white"/>
<path d="M26.8701 1.85153C26.8701 1.06384 27.5087 0.425293 28.2964 0.425293C29.084 0.425293 29.7226 1.06384 29.7226 1.85153C29.7226 2.63922 29.084 3.27776 28.2964 3.27776C27.5087 3.27776 26.8701 2.63922 26.8701 1.85153Z" fill="white"/>
<path d="M32.1035 1.85153C32.1035 1.06384 32.7421 0.425293 33.5298 0.425293C34.3174 0.425293 34.956 1.06384 34.956 1.85153C34.956 2.63922 34.3174 3.27776 33.5298 3.27776C32.7421 3.27776 32.1035 2.63922 32.1035 1.85153Z" fill="white"/>
<path d="M0.703613 33.3095C0.703613 32.5218 1.34216 31.8833 2.12985 31.8833C2.91754 31.8833 3.55608 32.5218 3.55608 33.3095C3.55608 34.0972 2.91754 34.7358 2.12985 34.7358C1.34216 34.7358 0.703613 34.0972 0.703613 33.3095Z" fill="white"/>
<path d="M5.93701 33.3095C5.93701 32.5218 6.57556 31.8833 7.36325 31.8833C8.15093 31.8833 8.78948 32.5218 8.78948 33.3095C8.78948 34.0972 8.15093 34.7358 7.36325 34.7358C6.57556 34.7358 5.93701 34.0972 5.93701 33.3095Z" fill="white"/>
<path d="M11.1704 33.3095C11.1704 32.5218 11.809 31.8833 12.5966 31.8833C13.3843 31.8833 14.0229 32.5218 14.0229 33.3095C14.0229 34.0972 13.3843 34.7358 12.5966 34.7358C11.809 34.7358 11.1704 34.0972 11.1704 33.3095Z" fill="white"/>
<path d="M16.4033 32.7453C16.4033 32.2692 16.7893 31.8833 17.2653 31.8833H18.3938C18.8699 31.8833 19.2558 32.2692 19.2558 32.7453V33.8738C19.2558 34.3498 18.8699 34.7358 18.3938 34.7358H17.2653C16.7893 34.7358 16.4033 34.3498 16.4033 33.8738V32.7453Z" fill="#FBB03B"/>
<path d="M21.6367 32.7453C21.6367 32.2692 22.0227 31.8833 22.4987 31.8833H23.6272C24.1033 31.8833 24.4892 32.2692 24.4892 32.7453V33.8738C24.4892 34.3498 24.1033 34.7358 23.6272 34.7358H22.4987C22.0227 34.7358 21.6367 34.3498 21.6367 33.8738V32.7453Z" fill="#0C7C59"/>
<path d="M26.8701 32.7453C26.8701 32.2692 27.2561 31.8833 27.7321 31.8833H28.8606C29.3367 31.8833 29.7226 32.2692 29.7226 32.7453V33.8738C29.7226 34.3498 29.3367 34.7358 28.8606 34.7358H27.7321C27.2561 34.7358 26.8701 34.3498 26.8701 33.8738V32.7453Z" fill="#0EB1D2"/>
<path d="M32.1035 32.7453C32.1035 32.2692 32.4895 31.8833 32.9655 31.8833H34.094C34.57 31.8833 34.956 32.2692 34.956 32.7453V33.8738C34.956 34.3498 34.57 34.7358 34.094 34.7358H32.9655C32.4895 34.7358 32.1035 34.3498 32.1035 33.8738V32.7453Z" fill="#D64933"/>
<path d="M16.4507 17.0163C16.4507 16.5402 16.8366 16.1543 17.3127 16.1543H18.4411C18.9172 16.1543 19.3032 16.5402 19.3032 17.0163V18.1448C19.3032 18.6208 18.9172 19.0068 18.4411 19.0068H17.3127C16.8366 19.0068 16.4507 18.6208 16.4507 18.1448V17.0163Z" fill="#D64933"/>
<path d="M21.6841 17.0163C21.6841 16.5402 22.07 16.1543 22.5461 16.1543H23.6745C24.1506 16.1543 24.5366 16.5402 24.5366 17.0163V18.1448C24.5366 18.6208 24.1506 19.0068 23.6745 19.0068H22.5461C22.07 19.0068 21.6841 18.6208 21.6841 18.1448V17.0163Z" fill="#0EB1D2"/>
<path d="M26.9175 17.0163C26.9175 16.5402 27.3034 16.1543 27.7795 16.1543H28.9079C29.384 16.1543 29.77 16.5402 29.77 17.0163V18.1448C29.77 18.6208 29.384 19.0068 28.9079 19.0068H27.7795C27.3034 19.0068 26.9175 18.6208 26.9175 18.1448V17.0163Z" fill="#0C7C59"/>
<path d="M32.1509 17.0163C32.1509 16.5402 32.5368 16.1543 33.0129 16.1543H34.1413C34.6174 16.1543 35.0033 16.5402 35.0033 17.0163V18.1448C35.0033 18.6208 34.6174 19.0068 34.1413 19.0068H33.0129C32.5368 19.0068 32.1509 18.6208 32.1509 18.1448V17.0163Z" fill="#FBB03B"/>
<path d="M37.3843 16.5853C37.3843 16.3473 37.5772 16.1543 37.8153 16.1543H39.8057C40.0438 16.1543 40.2367 16.3473 40.2367 16.5853V18.5758C40.2367 18.8138 40.0438 19.0068 39.8057 19.0068H37.8153C37.5772 19.0068 37.3843 18.8138 37.3843 18.5758V16.5853Z" fill="white"/>
<path d="M42.6177 16.5853C42.6177 16.3473 42.8106 16.1543 43.0487 16.1543H45.0391C45.2772 16.1543 45.4701 16.3473 45.4701 16.5853V18.5758C45.4701 18.8138 45.2772 19.0068 45.0391 19.0068H43.0487C42.8106 19.0068 42.6177 18.8138 42.6177 18.5758V16.5853Z" fill="white"/>
<path d="M47.8511 16.5853C47.8511 16.3473 48.044 16.1543 48.2821 16.1543H50.2725C50.5106 16.1543 50.7035 16.3473 50.7035 16.5853V18.5758C50.7035 18.8138 50.5106 19.0068 50.2725 19.0068H48.2821C48.044 19.0068 47.8511 18.8138 47.8511 18.5758V16.5853Z" fill="white"/>
<path d="M16.4507 48.0433C16.4507 47.8053 16.6437 47.6123 16.8817 47.6123H18.8721C19.1102 47.6123 19.3032 47.8053 19.3032 48.0433V50.0338C19.3032 50.2718 19.1102 50.4648 18.8721 50.4648H16.8817C16.6437 50.4648 16.4507 50.2718 16.4507 50.0338V48.0433Z" fill="white"/>
<path d="M21.6841 48.0433C21.6841 47.8053 21.8771 47.6123 22.1151 47.6123H24.1055C24.3436 47.6123 24.5366 47.8053 24.5366 48.0433V50.0338C24.5366 50.2718 24.3436 50.4648 24.1055 50.4648H22.1151C21.877 50.4648 21.6841 50.2718 21.6841 50.0338V48.0433Z" fill="white"/>
<path d="M26.9175 48.0433C26.9175 47.8053 27.1104 47.6123 27.3485 47.6123H29.3389C29.577 47.6123 29.77 47.8053 29.77 48.0433V50.0338C29.77 50.2718 29.577 50.4648 29.3389 50.4648H27.3485C27.1104 50.4648 26.9175 50.2718 26.9175 50.0338V48.0433Z" fill="white"/>
<path d="M32.1509 48.0433C32.1509 47.8053 32.3438 47.6123 32.5819 47.6123H34.5723C34.8104 47.6123 35.0033 47.8053 35.0033 48.0433V50.0338C35.0033 50.2718 34.8104 50.4648 34.5723 50.4648H32.5819C32.3438 50.4648 32.1509 50.2718 32.1509 50.0338V48.0433Z" fill="white"/>
<path d="M37.3843 48.0433C37.3843 47.8053 37.5772 47.6123 37.8153 47.6123H39.8057C40.0438 47.6123 40.2367 47.8053 40.2367 48.0433V50.0338C40.2367 50.2718 40.0438 50.4648 39.8057 50.4648H37.8153C37.5772 50.4648 37.3843 50.2718 37.3843 50.0338V48.0433Z" fill="white"/>
<path d="M42.6177 48.0433C42.6177 47.8053 42.8106 47.6123 43.0487 47.6123H45.0391C45.2772 47.6123 45.4701 47.8053 45.4701 48.0433V50.0338C45.4701 50.2718 45.2772 50.4648 45.0391 50.4648H43.0487C42.8106 50.4648 42.6177 50.2718 42.6177 50.0338V48.0433Z" fill="white"/>
<path d="M47.8511 48.0433C47.8511 47.8053 48.044 47.6123 48.2821 47.6123H50.2725C50.5106 47.6123 50.7035 47.8053 50.7035 48.0433V50.0338C50.7035 50.2718 50.5106 50.4648 50.2725 50.4648H48.2821C48.044 50.4648 47.8511 50.2718 47.8511 50.0338V48.0433Z" fill="white"/>
<path d="M32.1509 7.16964C32.1509 6.38196 32.7894 5.74341 33.5771 5.74341C34.3648 5.74341 35.0033 6.38196 35.0033 7.16964C35.0033 7.95733 34.3648 8.59588 33.5771 8.59588C32.7894 8.59588 32.1509 7.95733 32.1509 7.16964Z" fill="white"/>
<path d="M32.1509 12.3752C32.1509 11.5875 32.7894 10.949 33.5771 10.949C34.3648 10.949 35.0033 11.5875 35.0033 12.3752C35.0033 13.1629 34.3648 13.8014 33.5771 13.8014C32.7894 13.8014 32.1509 13.1629 32.1509 12.3752Z" fill="white"/>
<path d="M32.1509 22.278C32.1509 21.802 32.5368 21.416 33.0129 21.416H34.1413C34.6174 21.416 35.0033 21.802 35.0033 22.278V23.4065C35.0033 23.8825 34.6174 24.2685 34.1413 24.2685H33.0129C32.5368 24.2685 32.1509 23.8825 32.1509 23.4065V22.278Z" fill="#0C7C59"/>
<path d="M32.1509 27.4836C32.1509 27.0075 32.5368 26.6216 33.0129 26.6216H34.1413C34.6174 26.6216 35.0033 27.0075 35.0033 27.4836V28.612C35.0033 29.0881 34.6174 29.4741 34.1413 29.4741H33.0129C32.5368 29.4741 32.1509 29.0881 32.1509 28.612V27.4836Z" fill="#0EB1D2"/>
<path d="M47.8511 32.2579C47.8511 32.0199 48.044 31.8269 48.2821 31.8269H50.2725C50.5106 31.8269 50.7035 32.0199 50.7035 32.2579V34.2484C50.7035 34.4864 50.5106 34.6794 50.2725 34.6794H48.2821C48.044 34.6794 47.8511 34.4864 47.8511 34.2484V32.2579Z" fill="white"/>
<path d="M47.8511 21.847C47.8511 21.609 48.044 21.416 48.2821 21.416H50.2725C50.5106 21.416 50.7035 21.609 50.7035 21.847V23.8375C50.7035 24.0755 50.5106 24.2685 50.2725 24.2685H48.2821C48.044 24.2685 47.8511 24.0755 47.8511 23.8375V21.847Z" fill="white"/>
<path d="M47.8511 27.0526C47.8511 26.8145 48.044 26.6216 48.2821 26.6216H50.2725C50.5106 26.6216 50.7035 26.8146 50.7035 27.0526V29.043C50.7035 29.2811 50.5106 29.4741 50.2725 29.4741H48.2821C48.044 29.4741 47.8511 29.2811 47.8511 29.043V27.0526Z" fill="white"/>
<path d="M47.8511 37.5196C47.8511 37.2816 48.044 37.0886 48.2821 37.0886H50.2725C50.5106 37.0886 50.7035 37.2816 50.7035 37.5196V39.5101C50.7035 39.7481 50.5106 39.9411 50.2725 39.9411H48.2821C48.044 39.9411 47.8511 39.7481 47.8511 39.5101V37.5196Z" fill="white"/>
<path d="M47.8511 42.725C47.8511 42.4869 48.044 42.2939 48.2821 42.2939H50.2725C50.5106 42.2939 50.7035 42.4869 50.7035 42.725V44.7154C50.7035 44.9534 50.5106 45.1464 50.2725 45.1464H48.2821C48.044 45.1464 47.8511 44.9534 47.8511 44.7154V42.725Z" fill="white"/>
<path d="M16.4507 22.278C16.4507 21.802 16.8366 21.416 17.3127 21.416H18.4411C18.9172 21.416 19.3032 21.802 19.3032 22.278V23.4065C19.3032 23.8825 18.9172 24.2685 18.4411 24.2685H17.3127C16.8366 24.2685 16.4507 23.8825 16.4507 23.4065V22.278Z" fill="#0EB1D2"/>
<path d="M16.4507 27.4836C16.4507 27.0075 16.8366 26.6216 17.3127 26.6216H18.4411C18.9172 26.6216 19.3032 27.0075 19.3032 27.4836V28.612C19.3032 29.0881 18.9172 29.4741 18.4411 29.4741H17.3127C16.8366 29.4741 16.4507 29.0881 16.4507 28.612V27.4836Z" fill="#0C7C59"/>
<path d="M16.4507 37.5196C16.4507 37.2816 16.6437 37.0886 16.8817 37.0886H18.8721C19.1102 37.0886 19.3032 37.2816 19.3032 37.5196V39.5101C19.3032 39.7481 19.1102 39.9411 18.8721 39.9411H16.8817C16.6437 39.9411 16.4507 39.7481 16.4507 39.5101V37.5196Z" fill="white"/>
<path d="M16.4507 42.725C16.4507 42.4869 16.6437 42.2939 16.8817 42.2939H18.8721C19.1102 42.2939 19.3032 42.4869 19.3032 42.725V44.7154C19.3032 44.9534 19.1102 45.1464 18.8721 45.1464H16.8817C16.6437 45.1464 16.4507 44.9534 16.4507 44.7154V42.725Z" fill="white"/>
<path d="M0.703613 17.5805C0.703613 16.7928 1.34216 16.1543 2.12985 16.1543C2.91754 16.1543 3.55608 16.7928 3.55608 17.5805C3.55608 18.3682 2.91754 19.0068 2.12985 19.0068C1.34216 19.0068 0.703613 18.3682 0.703613 17.5805Z" fill="white"/>
<path d="M0.703613 7.16964C0.703613 6.38196 1.34216 5.74341 2.12985 5.74341C2.91754 5.74341 3.55608 6.38196 3.55608 7.16964C3.55608 7.95733 2.91754 8.59588 2.12985 8.59588C1.34216 8.59588 0.703613 7.95733 0.703613 7.16964Z" fill="white"/>
<path d="M0.703613 12.3752C0.703613 11.5875 1.34216 10.949 2.12985 10.949C2.91754 10.949 3.55608 11.5875 3.55608 12.3752C3.55608 13.1629 2.91754 13.8014 2.12985 13.8014C1.34216 13.8014 0.703613 13.1629 0.703613 12.3752Z" fill="white"/>
<path d="M0.703613 22.8423C0.703613 22.0546 1.34216 21.416 2.12985 21.416C2.91754 21.416 3.55608 22.0546 3.55608 22.8423C3.55608 23.6299 2.91754 24.2685 2.12985 24.2685C1.34216 24.2685 0.703613 23.6299 0.703613 22.8423Z" fill="white"/>
<path d="M0.703613 28.0478C0.703613 27.2601 1.34216 26.6216 2.12985 26.6216C2.91754 26.6216 3.55608 27.2601 3.55608 28.0478C3.55608 28.8355 2.91754 29.4741 2.12985 29.4741C1.34216 29.4741 0.703613 28.8355 0.703613 28.0478Z" fill="white"/>
<path d="M88.1333 10.5195C88.438 10.4961 88.9419 10.2852 89.645 9.88672C90.3481 9.46484 90.8286 9.24219 91.0864 9.21875C91.2036 9.21875 91.3091 9.27734 91.4028 9.39453C91.52 9.48828 91.5786 9.59375 91.5786 9.71094C91.5786 10.0156 91.2739 10.3672 90.6646 10.7656C90.4771 10.9062 90.0083 11.1641 89.2583 11.5391C88.5083 11.9141 88.0044 12.2188 87.7466 12.4531C87.6997 12.5234 87.4771 12.9336 87.0786 13.6836C86.6802 14.4336 86.4106 14.8438 86.27 14.9141C85.731 15.3359 85.4146 15.6172 85.3208 15.7578C85.2271 15.8984 85.1333 16.2148 85.0396 16.707C85.0161 16.9883 84.9927 17.1992 84.9692 17.3398C84.9692 17.457 84.981 17.5508 85.0044 17.6211C85.0278 17.6914 85.0747 17.7266 85.145 17.7266C85.2153 17.7266 85.3208 17.6914 85.4614 17.6211C85.6724 17.5039 85.9771 17.4336 86.3755 17.4102C86.7974 17.3633 87.0669 17.3867 87.1841 17.4805C87.4888 17.7383 87.6411 18.043 87.6411 18.3945C87.6411 18.6055 87.5474 18.9102 87.3599 19.3086C87.1724 19.6836 87.02 19.8945 86.9028 19.9414C86.8091 19.9648 86.7036 20.0703 86.5864 20.2578C86.5161 20.3984 86.0239 20.9375 85.1099 21.875C84.4067 22.5781 83.9263 23.1172 83.6685 23.4922C83.4341 23.8438 83.3052 24.2188 83.2817 24.6172C83.2817 24.8047 83.2935 24.9219 83.3169 24.9688C83.3638 25.0156 83.481 25.0391 83.6685 25.0391C83.9028 25.1094 84.0786 25.168 84.1958 25.2148C84.313 25.2617 84.395 25.332 84.4419 25.4258C84.5122 25.5195 84.5474 25.6367 84.5474 25.7773C84.5474 25.918 84.5474 26.0938 84.5474 26.3047C84.5474 26.5156 84.5474 26.7734 84.5474 27.0781C84.5474 27.9688 84.5708 28.4141 84.6177 28.4141C84.688 28.4141 84.8872 28.2852 85.2153 28.0273C85.5669 27.7695 85.7544 27.6055 85.7778 27.5352C85.8247 27.4648 85.8833 27.1367 85.9536 26.5508C86.0239 25.9648 86.0591 25.5078 86.0591 25.1797C86.0591 24.5234 86.3052 24.1953 86.7974 24.1953C87.0552 24.1953 87.231 24.2891 87.3247 24.4766C87.4185 24.6641 87.4653 24.9922 87.4653 25.4609C87.4653 25.9297 87.4888 26.1992 87.5356 26.2695C87.606 26.3164 87.7817 26.1992 88.063 25.918C88.2505 25.707 88.4966 25.5312 88.8013 25.3906C89.1294 25.2266 89.3521 25.168 89.4692 25.2148C89.7036 25.3086 89.5161 25.6719 88.9067 26.3047C88.7661 26.4453 88.5903 26.6211 88.3794 26.832C87.5825 27.6523 87.1841 28.0977 87.1841 28.168C87.0435 29.6445 86.8208 30.9805 86.5161 32.1758L86.3403 32.8789L86.6567 33.1602C86.7036 33.2305 86.8091 33.3242 86.9731 33.4414C87.1372 33.5586 87.2544 33.6758 87.3247 33.793C87.4185 33.9102 87.4653 34.0625 87.4653 34.25C87.4653 34.5547 87.3481 34.7539 87.1138 34.8477C86.8794 34.9414 86.6099 34.9062 86.3052 34.7422C86.1177 34.6484 85.9888 34.6484 85.9185 34.7422C85.5903 35.1875 85.0161 36.2539 84.1958 37.9414C83.938 38.4805 83.5044 38.8555 82.895 39.0664C82.2856 39.2773 81.7817 39.1484 81.3833 38.6797C81.1958 38.4453 81.0669 38.1875 80.9966 37.9062C80.9497 37.625 80.9966 37.4375 81.1372 37.3438C81.2075 37.2734 81.2661 37.25 81.313 37.2734C81.3833 37.3203 81.5356 37.5078 81.77 37.8359C82.1216 38.3516 82.6372 37.9648 83.3169 36.6758C83.4575 36.3945 83.6099 36.0781 83.7739 35.7266C84.1255 34.9766 84.2544 34.5781 84.1606 34.5312C83.9966 34.4375 83.5396 34.4023 82.7896 34.4258C82.0864 34.4492 81.6763 34.2383 81.5591 33.793C81.395 33.2539 81.4185 32.8555 81.6294 32.5977C82.0981 31.9883 81.7935 32.0352 80.7153 32.7383C79.9888 33.207 79.4966 33.4766 79.2388 33.5469C79.0044 33.6172 78.77 33.5352 78.5356 33.3008C78.1841 32.9727 78.1606 32.6562 78.4653 32.3516C78.6997 32.2109 79.2505 31.9062 80.1177 31.4375C81.0083 30.9688 81.5239 30.6875 81.6646 30.5938C82.4849 30.2656 82.9771 29.1875 83.1411 27.3594C83.1411 26.9375 83.106 26.6328 83.0356 26.4453C82.9653 26.2344 82.813 25.9766 82.5786 25.6719C82.3208 25.3672 82.2036 25.0859 82.2271 24.8281C82.2739 24.6406 82.2505 24.5117 82.1567 24.4414C82.0864 24.3711 81.981 24.3945 81.8403 24.5117C81.5825 24.7461 81.3013 24.8867 80.9966 24.9336C80.6919 24.9805 80.481 24.9102 80.3638 24.7227C80.27 24.582 80.27 24.3945 80.3638 24.1602C80.5513 23.7148 80.5513 23.0352 80.3638 22.1211C80.1763 21.207 80.1646 20.5273 80.3286 20.082C80.4692 19.6133 80.5864 19.3203 80.6802 19.2031C80.8677 19.1328 80.9731 19.0977 80.9966 19.0977C81.02 19.0742 81.0669 19.1211 81.1372 19.2383C81.2075 19.3555 81.2896 19.4492 81.3833 19.5195L81.6646 19.8008L82.0864 19.4492C82.2036 19.332 82.4263 19.1797 82.7544 18.9922C83.106 18.7812 83.3521 18.5703 83.4927 18.3594C83.6567 18.1484 83.7271 17.8438 83.7036 17.4453L83.7388 16.8477L83.3169 16.8125C83.1997 16.7656 83.0005 16.7188 82.7192 16.6719C82.4614 16.6016 82.2739 16.543 82.1567 16.4961C82.0396 16.4492 81.9106 16.3555 81.77 16.2148C81.6528 16.0508 81.5942 15.8398 81.5942 15.582C81.5942 15.2305 81.5005 15.043 81.313 15.0195C81.1489 14.9961 80.938 15.043 80.6802 15.1602C80.6567 15.2305 80.4106 15.3125 79.9419 15.4062C79.4731 15.4766 78.9106 15.5586 78.2544 15.6523C77.5981 15.7461 77.2114 15.8047 77.0942 15.8281C76.8833 15.875 76.6841 15.8047 76.4966 15.6172C76.2622 15.4297 76.1685 15.2539 76.2153 15.0898C76.2856 14.9258 76.4849 14.75 76.813 14.5625C77.188 14.3516 77.7153 14.2227 78.395 14.1758C79.4263 14.1055 80.1997 13.9531 80.7153 13.7188C81.0903 13.5547 81.3013 13.3906 81.3481 13.2266C81.395 13.0625 81.3599 12.6641 81.2427 12.0312C81.1958 11.7969 81.1489 11.5273 81.1021 11.2227C81.0786 10.8945 81.0435 10.625 80.9966 10.4141C80.9497 10.2031 80.8794 10.0273 80.7856 9.88672C80.481 9.62891 80.5396 9.40625 80.9614 9.21875C81.313 9.05469 81.5825 9.05469 81.77 9.21875C81.8638 9.28906 81.9575 9.44141 82.0513 9.67578C82.145 9.91016 82.2388 10.1914 82.3325 10.5195C82.4263 10.8242 82.4966 11.0352 82.5435 11.1523C82.6138 11.2461 82.6841 11.2578 82.7544 11.1875C82.8481 11.0938 82.9536 10.9766 83.0708 10.8359C83.188 10.6953 83.27 10.6367 83.3169 10.6602C83.4575 10.6367 83.5278 10.4609 83.5278 10.1328C83.5278 9.52344 83.7271 9.21875 84.1255 9.21875C84.2896 9.24219 84.4888 9.3125 84.7231 9.42969C84.9575 9.52344 85.3091 9.55859 85.7778 9.53516C86.3169 9.51172 86.7271 9.55859 87.0083 9.67578C87.2896 9.79297 87.5474 9.98047 87.7817 10.2383C87.8755 10.4258 87.9927 10.5195 88.1333 10.5195ZM85.4263 10.9414C85.2388 10.9648 85.1333 11.0938 85.1099 11.3281C85.0864 11.5391 85.1216 11.6914 85.2153 11.7852C85.3091 11.832 85.5435 11.7734 85.9185 11.6094C86.5981 11.3516 86.7153 11.1172 86.27 10.9062C86.0122 10.7891 85.731 10.8008 85.4263 10.9414ZM83.7036 12.6289C83.7739 12.5117 83.7856 12.2656 83.7388 11.8906C83.6919 11.4922 83.5747 11.293 83.3872 11.293C82.9888 11.3398 82.7661 11.4219 82.7192 11.5391C82.6724 11.6563 82.6724 11.8789 82.7192 12.207C82.7661 12.5352 82.8247 12.7344 82.895 12.8047C82.9888 12.8516 83.1294 12.8633 83.3169 12.8398C83.5044 12.793 83.6333 12.7227 83.7036 12.6289ZM85.3208 13.7891C85.3911 13.8594 85.5083 13.7656 85.6724 13.5078C85.7896 13.3438 85.7778 13.25 85.6372 13.2266C85.5435 13.2266 85.4497 13.3086 85.356 13.4727C85.2856 13.6367 85.2739 13.7422 85.3208 13.7891ZM83.8442 14.8086C83.8442 14.4336 83.8091 14.2109 83.7388 14.1406C83.6685 14.0703 83.5396 14.0937 83.3521 14.2109C83.2349 14.3047 83.1528 14.5625 83.106 14.9844C83.0122 15.5703 83.0942 15.875 83.3521 15.8984C83.563 15.8984 83.7153 15.6992 83.8091 15.3008C83.856 15.1367 83.8677 14.9727 83.8442 14.8086ZM85.4966 19.0977C85.3325 19.0508 85.145 19.1211 84.9341 19.3086C84.7231 19.4961 84.6294 19.6719 84.6528 19.8359C84.6528 19.9297 84.6646 19.9883 84.688 20.0117C84.7114 20.0117 84.7935 19.9766 84.9341 19.9062C85.0044 19.8594 85.1099 19.7305 85.2505 19.5195C85.4146 19.3086 85.4966 19.168 85.4966 19.0977ZM83.1763 20.5742C83.2231 20.3164 83.1997 20.1875 83.106 20.1875C83.0122 20.2109 82.8013 20.3047 82.4731 20.4688C82.1216 20.6562 81.9106 20.7969 81.8403 20.8906C81.77 20.9609 81.7114 21.125 81.6646 21.3828C81.6177 21.8047 81.6763 22.0742 81.8403 22.1914C82.0278 22.3086 82.2739 22.2383 82.5786 21.9805C82.8833 21.7227 83.0825 21.2539 83.1763 20.5742ZM85.6724 29.6094C85.6724 29.375 85.3677 29.4688 84.7583 29.8906C84.0786 30.3359 83.6216 31.0742 83.3872 32.1055C83.27 32.5508 83.2349 32.832 83.2817 32.9492C83.3521 33.0664 83.5513 33.1016 83.8794 33.0547C84.2778 33.0078 84.5474 32.9492 84.688 32.8789C84.8521 32.8086 84.9575 32.6797 85.0044 32.4922C85.4497 30.9922 85.6724 30.0312 85.6724 29.6094ZM99.1372 16.8125C99.02 17.3047 98.8208 18.0898 98.5396 19.168C98.2817 20.2461 98.0825 21.0898 97.9419 21.6992C97.7544 22.0977 97.7192 22.2969 97.8364 22.2969C97.8833 22.2969 98.1528 22.1211 98.645 21.7695C98.7388 21.6992 98.8091 21.6641 98.856 21.6641C99.0669 21.5469 99.4771 21.1953 100.086 20.6094C100.766 20 101.317 19.6016 101.739 19.4141C102.184 19.2031 102.583 19.1914 102.934 19.3789C103.239 19.543 103.391 19.8711 103.391 20.3633C103.368 21.1602 103.133 22.332 102.688 23.8789C102.243 25.4258 101.809 26.4102 101.387 26.832C101.176 27.0898 101.094 27.3008 101.141 27.4648C101.211 27.6289 101.434 27.8867 101.809 28.2383C102.114 28.5195 102.336 28.7656 102.477 28.9766C102.641 29.1641 102.805 29.3281 102.969 29.4688C103.157 29.6094 103.579 29.8672 104.235 30.2422C105.079 30.7578 105.653 31.1328 105.958 31.3672C106.286 31.5781 106.59 31.8008 106.872 32.0352C107.153 32.2461 107.54 32.5156 108.032 32.8438C108.336 33.0547 109.016 33.6289 110.071 34.5664C111.149 35.4805 111.805 36.0078 112.04 36.1484C112.227 36.2656 112.344 36.3594 112.391 36.4297C112.485 36.6172 112.508 36.8516 112.461 37.1328C112.415 37.4141 112.297 37.6484 112.11 37.8359C111.922 38.0234 111.723 38.0469 111.512 37.9062C111.231 37.7656 110.586 37.1914 109.579 36.1836C108.594 35.1523 107.973 34.6016 107.715 34.5312C107.645 34.5312 107.411 34.3555 107.012 34.0039C106.215 33.2773 104.903 32.3633 103.075 31.2617C102.583 30.9805 101.973 30.5 101.247 29.8203C100.637 29.2344 100.239 28.9062 100.051 28.8359C99.8638 28.7656 99.6997 28.8711 99.5591 29.1523C99.4419 29.3633 99.2896 29.5508 99.1021 29.7148C98.938 29.8789 98.7271 30.043 98.4692 30.207C98.2349 30.3711 98.0239 30.5469 97.8364 30.7344C97.438 31.0625 97.0864 31.2969 96.7817 31.4375C96.5005 31.5781 96.1255 31.6719 95.6567 31.7188C95.1177 31.7656 94.731 31.7305 94.4966 31.6133C94.2622 31.4961 94.2036 31.2852 94.3208 30.9805C94.438 30.6758 94.6255 30.6055 94.8833 30.7695C95.188 30.957 95.6919 30.8164 96.395 30.3477C96.9341 29.9961 97.4146 29.5742 97.8364 29.082C98.4458 28.4258 98.6333 28.0742 98.3989 28.0273C98.3521 28.0039 98.2349 27.9688 98.0474 27.9219C97.8833 27.875 97.7427 27.8398 97.6255 27.8164C97.5317 27.793 97.4028 27.7578 97.2388 27.7109C97.0981 27.6641 96.9692 27.6289 96.8521 27.6055C96.7583 27.5586 96.6646 27.5234 96.5708 27.5C96.4771 27.4531 96.4067 27.418 96.3599 27.3945C96.313 27.3477 96.2896 27.3125 96.2896 27.2891C95.9849 26.9844 96.0669 26.7266 96.5356 26.5156C97.3325 26.2109 98.2231 26.2461 99.2075 26.6211C99.4419 26.7148 99.6177 26.7383 99.7349 26.6914C99.9458 26.6211 100.274 26.082 100.719 25.0742C101.188 24.043 101.469 23.2344 101.563 22.6484C101.563 22.5547 101.61 22.3672 101.704 22.0859C101.797 21.7812 101.844 21.5469 101.844 21.3828C101.868 21.2188 101.833 21.0547 101.739 20.8906C101.668 20.8906 101.329 21.1719 100.719 21.7344C98.938 23.375 97.6841 24.1953 96.9575 24.1953C96.6763 24.2422 96.4653 24.207 96.3247 24.0898C96.1841 23.9492 96.1138 23.7617 96.1138 23.5273C96.1138 23.293 96.1372 23.0703 96.1841 22.8594C96.231 22.6484 96.3013 22.4258 96.395 22.1914C96.5591 21.7227 96.6997 21.2305 96.8169 20.7148C96.9575 20.1758 97.0981 19.5664 97.2388 18.8867C97.4028 18.207 97.5317 17.6797 97.6255 17.3047C97.7427 16.9766 97.8013 16.6367 97.8013 16.2852C97.8013 15.9336 97.8481 15.6875 97.9419 15.5469C98.2231 15.1953 98.5747 15.1953 98.9966 15.5469C99.1606 15.7109 99.2427 15.8633 99.2427 16.0039C99.2661 16.1211 99.231 16.3906 99.1372 16.8125ZM142.562 12.6641C142.82 12.875 143.172 13.0977 143.617 13.332C144.086 13.543 144.472 13.6836 144.777 13.7539C145.129 13.9414 145.316 14.1875 145.34 14.4922C145.363 14.7969 145.246 15.1016 144.988 15.4062C144.73 15.7109 144.484 15.9688 144.25 16.1797C144.039 16.3672 143.84 16.5312 143.652 16.6719C143.488 16.5547 143.523 16.2734 143.758 15.8281C143.992 15.3594 144.039 15.0313 143.898 14.8438C143.758 14.7969 143.547 14.7383 143.265 14.668C143.008 14.5742 142.773 14.4805 142.562 14.3867C142.351 14.293 142.14 14.1523 141.929 13.9648C140.687 13.1211 140.418 12.5703 141.121 12.3125C141.707 12.125 142.187 12.2422 142.562 12.6641ZM130.75 16.3906C130.797 16.2031 130.832 16.0859 130.855 16.0391C130.879 15.9922 130.949 15.9453 131.066 15.8984C131.183 15.8281 131.347 15.8281 131.558 15.8984C132.097 15.9219 132.367 16.1094 132.367 16.4609C132.343 16.7422 131.922 17.5039 131.101 18.7461C130.304 19.9883 129.906 20.6797 129.906 20.8203C129.906 20.9375 130.023 20.9961 130.258 20.9961C130.492 20.9961 130.679 21.0547 130.82 21.1719C130.984 21.2656 131.101 21.4414 131.172 21.6992C131.242 21.9336 131.289 22.1562 131.312 22.3672C131.336 22.5547 131.347 22.8359 131.347 23.2109C131.371 23.5625 131.394 23.8203 131.418 23.9844C131.582 25.4844 131.629 27.4414 131.558 29.8555C131.511 32.2461 131.359 34.0977 131.101 35.4102C131.008 35.7383 130.832 35.9609 130.574 36.0781C130.34 36.1719 130.105 36.1133 129.871 35.9023C129.636 35.668 129.648 34.8594 129.906 33.4766C130.047 32.7734 130.117 31.1328 130.117 28.5547C130.14 26.9609 130.14 25.9062 130.117 25.3906C130.093 24.8516 130.035 24.3359 129.941 23.8438C129.847 23.3516 129.765 22.6484 129.695 21.7344C129.578 21.5703 129.449 21.6523 129.308 21.9805C129.261 22.0977 129.226 22.2266 129.203 22.3672C129.156 22.6719 128.91 23.1523 128.465 23.8086C128.019 24.4648 127.679 24.8633 127.445 25.0039C127 25.2617 126.695 25.2383 126.531 24.9336C126.461 24.8164 126.519 24.5352 126.707 24.0898C126.918 23.6211 127.363 22.6836 128.043 21.2773C128.605 20.1289 129.074 19.2852 129.449 18.7461C129.824 18.207 130.258 17.4219 130.75 16.3906ZM144.707 32.4219C144.613 32.4219 144.179 32.5391 143.406 32.7734C142.656 33.0078 142.175 33.1016 141.965 33.0547C141.004 33.1484 140.64 32.7383 140.875 31.8242C140.968 31.5898 141.109 31.4258 141.297 31.332C141.484 31.2383 141.859 31.1562 142.422 31.0859C143.148 30.9688 143.511 30.8633 143.511 30.7695C143.511 30.7227 143.441 30.6758 143.3 30.6289C143.066 30.5352 142.902 30.3945 142.808 30.207C142.738 29.9961 142.703 29.6328 142.703 29.1172C142.726 27.7578 142.703 26.457 142.633 25.2148C142.586 23.9727 142.515 23.3281 142.422 23.2812C142.375 23.3047 142.093 23.4805 141.578 23.8086C141.086 24.1133 140.675 24.3477 140.347 24.5117C140.043 24.6758 139.761 24.7695 139.504 24.793C139.011 25.0273 138.636 24.9219 138.379 24.4766C138.144 24.0312 138.179 23.6094 138.484 23.2109C138.484 23.0703 138.66 23.0469 139.011 23.1406C139.363 23.2109 139.574 23.2344 139.644 23.2109C140.793 22.625 141.965 21.875 143.16 20.9609C144.379 20.0234 145.422 19.0625 146.289 18.0781C146.593 17.7031 146.84 17.5156 147.027 17.5156C147.355 17.5391 147.566 17.668 147.66 17.9023C147.754 18.1133 147.695 18.3594 147.484 18.6406C147.367 18.8047 146.734 19.4492 145.586 20.5742L143.898 22.2617L143.933 23.0352C144.004 23.3398 144.062 24.582 144.109 26.7617C144.156 28.9414 144.191 30.1367 144.215 30.3477C144.894 29.5273 145.468 28.5078 145.937 27.2891C146.429 26.0703 146.664 24.7812 146.64 23.4219C146.734 21.3594 146.863 20.1523 147.027 19.8008C147.144 19.6133 147.285 19.543 147.449 19.5898C147.636 19.6133 147.777 19.7539 147.871 20.0117C147.965 20.2461 148.023 20.4805 148.047 20.7148C148.07 20.9492 148.07 21.5703 148.047 22.5781C148.047 22.9766 148.047 23.2461 148.047 23.3867C148.047 23.5273 148.035 23.7148 148.011 23.9492C148.011 24.1836 148.011 24.3242 148.011 24.3711C148.011 24.3945 147.988 24.5 147.941 24.6875C147.918 24.8516 147.906 24.9453 147.906 24.9688C147.906 24.9922 147.883 25.1211 147.836 25.3555C147.789 25.5664 147.754 25.7188 147.73 25.8125C147.613 26.375 147.461 26.9141 147.273 27.4297C147.109 27.9219 146.886 28.4492 146.605 29.0117C146.347 29.5742 146.148 30.0078 146.008 30.3125C146.078 30.4531 146.429 30.4648 147.062 30.3477C147.484 30.2539 148.656 30.1484 150.578 30.0312C152.523 29.9141 153.718 29.7969 154.164 29.6797C154.375 29.6094 154.574 29.5977 154.761 29.6445C154.949 29.668 155.136 29.668 155.324 29.6445C155.511 29.6211 155.664 29.5391 155.781 29.3984C156.039 29.0469 156.508 29.1055 157.187 29.5742C157.375 29.8555 157.363 30.2188 157.152 30.6641C156.941 31.0859 156.625 31.25 156.203 31.1562C156.039 31.1562 155.465 31.1914 154.48 31.2617C153.496 31.3086 152.793 31.3555 152.371 31.4023C151.972 31.4258 151.316 31.4727 150.402 31.543C149.488 31.6133 148.761 31.6836 148.222 31.7539C147.683 31.8242 147.074 31.918 146.394 32.0352C145.738 32.1523 145.175 32.2812 144.707 32.4219Z" fill="white"/>
<path d="M178.98 27.9128V34.4648H175.704V11.5328H185.532V14.8088H188.808V24.6368H185.532V27.9128H178.98ZM178.98 24.6368H185.532V14.8088H178.98V24.6368ZM393.131 34.4648V31.1888H396.407V34.4648H393.131ZM396.407 31.1888V27.9128H399.683V24.6368H396.407V21.3608H399.683V24.6368H402.959V27.9128H399.683V31.1888H396.407ZM402.959 24.6368V11.5328H406.235V24.6368H402.959ZM396.407 21.3608H393.131V11.5328H396.407V21.3608Z" fill="#D64933"/>
<path d="M215.99 34.4648H202.886V11.5328H206.162V31.1888H215.99V34.4648ZM362.679 14.8088V11.5328H379.059V14.8088H372.507V34.4648H369.231V14.8088H362.679Z" fill="#FBB03B"/>
<path d="M243.173 34.4648H233.345V31.1888H243.173V34.4648ZM243.173 31.1888V11.5328H246.449V31.1888H243.173ZM233.345 31.1888H230.069V11.5328H233.345V31.1888ZM348.616 11.5328V34.4648H345.34V11.5328H348.616Z" fill="#0C7C59"/>
<path d="M273.626 27.9128V34.4648H270.35V27.9128H273.626ZM263.798 27.9128V34.4648H260.522V11.5328H270.35V14.8088H273.626V24.6368H270.35V27.9128H263.798ZM263.798 24.6368H270.35V14.8088H263.798V24.6368ZM331.261 34.4648H318.157V11.5328H321.433V31.1888H331.261V34.4648Z" fill="#0EB1D2"/>
<path d="M304.084 21.3608V34.4648H300.808V27.9128H290.98V34.4648H287.704V21.3608H290.98V24.6368H300.808V21.3608H304.084ZM300.808 21.3608H297.532V14.8088H300.808V21.3608ZM290.98 21.3608V14.8088H294.256V21.3608H290.98ZM297.532 14.8088H294.256V11.5328H297.532V14.8088Z" fill="white"/>
</svg>
