<svg width="244" height="66" viewBox="0 0 244 66" fill="none" xmlns="http://www.w3.org/2000/svg">
<path d="M0.0722656 2.45725C0.0722656 1.57504 0.787438 0.859863 1.66965 0.859863C2.55186 0.859863 3.26703 1.57504 3.26703 2.45725C3.26703 3.33946 2.55186 4.05463 1.66965 4.05463C0.787438 4.05463 0.0722656 3.33946 0.0722656 2.45725Z" fill="white"/>
<path d="M5.93359 2.45725C5.93359 1.57504 6.64877 0.859863 7.53098 0.859863C8.41319 0.859863 9.12836 1.57504 9.12836 2.45725C9.12836 3.33946 8.41319 4.05463 7.53098 4.05463C6.64877 4.05463 5.93359 3.33946 5.93359 2.45725Z" fill="white"/>
<path d="M11.7949 2.45725C11.7949 1.57504 12.5101 0.859863 13.3923 0.859863C14.2745 0.859863 14.9897 1.57504 14.9897 2.45725C14.9897 3.33946 14.2745 4.05463 13.3923 4.05463C12.5101 4.05463 11.7949 3.33946 11.7949 2.45725Z" fill="white"/>
<path d="M17.6562 2.45725C17.6562 1.57504 18.3714 0.859863 19.2536 0.859863C20.1358 0.859863 20.851 1.57504 20.851 2.45725C20.851 3.33946 20.1358 4.05463 19.2536 4.05463C18.3714 4.05463 17.6562 3.33946 17.6562 2.45725Z" fill="white"/>
<path d="M23.5176 2.45725C23.5176 1.57504 24.2328 0.859863 25.115 0.859863C25.9972 0.859863 26.7123 1.57504 26.7123 2.45725C26.7123 3.33946 25.9972 4.05463 25.115 4.05463C24.2328 4.05463 23.5176 3.33946 23.5176 2.45725Z" fill="white"/>
<path d="M29.3784 2.45725C29.3784 1.57504 30.0936 0.859863 30.9758 0.859863C31.858 0.859863 32.5732 1.57504 32.5732 2.45725C32.5732 3.33946 31.858 4.05463 30.9758 4.05463C30.0936 4.05463 29.3784 3.33946 29.3784 2.45725Z" fill="white"/>
<path d="M35.2397 2.45725C35.2397 1.57504 35.9549 0.859863 36.8371 0.859863C37.7193 0.859863 38.4345 1.57504 38.4345 2.45725C38.4345 3.33946 37.7193 4.05463 36.8371 4.05463C35.9549 4.05463 35.2397 3.33946 35.2397 2.45725Z" fill="white"/>
<path d="M0.0722656 37.6902C0.0722656 36.8079 0.787438 36.0928 1.66965 36.0928C2.55186 36.0928 3.26703 36.8079 3.26703 37.6902C3.26703 38.5724 2.55186 39.2875 1.66965 39.2875C0.787438 39.2875 0.0722656 38.5724 0.0722656 37.6902Z" fill="white"/>
<path d="M5.93359 37.6902C5.93359 36.8079 6.64877 36.0928 7.53098 36.0928C8.41319 36.0928 9.12836 36.8079 9.12836 37.6902C9.12836 38.5724 8.41319 39.2875 7.53098 39.2875C6.64877 39.2875 5.93359 38.5724 5.93359 37.6902Z" fill="white"/>
<path d="M11.7949 37.6902C11.7949 36.8079 12.5101 36.0928 13.3923 36.0928C14.2745 36.0928 14.9897 36.8079 14.9897 37.6902C14.9897 38.5724 14.2745 39.2875 13.3923 39.2875C12.5101 39.2875 11.7949 38.5724 11.7949 37.6902Z" fill="white"/>
<path d="M17.6562 37.0582C17.6562 36.525 18.0885 36.0928 18.6217 36.0928H19.8856C20.4188 36.0928 20.851 36.525 20.851 37.0582V38.3221C20.851 38.8553 20.4188 39.2875 19.8856 39.2875H18.6217C18.0885 39.2875 17.6562 38.8553 17.6562 38.3221V37.0582Z" fill="#FBB03B"/>
<path d="M23.5176 37.0582C23.5176 36.525 23.9498 36.0928 24.483 36.0928H25.7469C26.2801 36.0928 26.7123 36.525 26.7123 37.0582V38.3221C26.7123 38.8553 26.2801 39.2875 25.7469 39.2875H24.483C23.9498 39.2875 23.5176 38.8553 23.5176 38.3221V37.0582Z" fill="#39B54A"/>
<path d="M29.3784 37.0582C29.3784 36.525 29.8107 36.0928 30.3439 36.0928H31.6077C32.1409 36.0928 32.5732 36.525 32.5732 37.0582V38.3221C32.5732 38.8553 32.1409 39.2875 31.6077 39.2875H30.3439C29.8107 39.2875 29.3784 38.8553 29.3784 38.3221V37.0582Z" fill="#0EB1D2"/>
<path d="M35.2397 37.0582C35.2397 36.525 35.672 36.0928 36.2052 36.0928H37.4691C38.0023 36.0928 38.4345 36.525 38.4345 37.0582V38.3221C38.4345 38.8553 38.0023 39.2875 37.4691 39.2875H36.2052C35.672 39.2875 35.2397 38.8553 35.2397 38.3221V37.0582Z" fill="#D64933"/>
<path d="M17.709 19.4419C17.709 18.9087 18.1412 18.4764 18.6744 18.4764H19.9383C20.4715 18.4764 20.9038 18.9087 20.9038 19.4419V20.7058C20.9038 21.239 20.4715 21.6712 19.9383 21.6712H18.6744C18.1412 21.6712 17.709 21.239 17.709 20.7058V19.4419Z" fill="#D64933"/>
<path d="M23.5708 19.4419C23.5708 18.9087 24.003 18.4764 24.5363 18.4764H25.8001C26.3333 18.4764 26.7656 18.9087 26.7656 19.4419V20.7058C26.7656 21.239 26.3333 21.6712 25.8001 21.6712H24.5363C24.003 21.6712 23.5708 21.239 23.5708 20.7058V19.4419Z" fill="#0EB1D2"/>
<path d="M29.4316 19.4419C29.4316 18.9087 29.8639 18.4764 30.3971 18.4764H31.661C32.1942 18.4764 32.6264 18.9087 32.6264 19.4419V20.7058C32.6264 21.239 32.1942 21.6712 31.661 21.6712H30.3971C29.8639 21.6712 29.4316 21.239 29.4316 20.7058V19.4419Z" fill="#39B54A"/>
<path d="M35.293 19.4419C35.293 18.9087 35.7252 18.4764 36.2584 18.4764H37.5223C38.0555 18.4764 38.4877 18.9087 38.4877 19.4419V20.7058C38.4877 21.239 38.0555 21.6712 37.5223 21.6712H36.2584C35.7252 21.6712 35.293 21.239 35.293 20.7058V19.4419Z" fill="#FBB03B"/>
<path d="M41.1543 18.9592C41.1543 18.6926 41.3704 18.4764 41.637 18.4764H43.8663C44.1329 18.4764 44.3491 18.6926 44.3491 18.9592V21.1885C44.3491 21.4551 44.1329 21.6712 43.8663 21.6712H41.637C41.3704 21.6712 41.1543 21.4551 41.1543 21.1885V18.9592Z" fill="white"/>
<path d="M47.0161 18.9592C47.0161 18.6926 47.2322 18.4764 47.4988 18.4764H49.7282C49.9948 18.4764 50.2109 18.6926 50.2109 18.9592V21.1885C50.2109 21.4551 49.9948 21.6712 49.7282 21.6712H47.4988C47.2322 21.6712 47.0161 21.4551 47.0161 21.1885V18.9592Z" fill="white"/>
<path d="M52.8774 18.9592C52.8774 18.6926 53.0936 18.4764 53.3602 18.4764H55.5895C55.8561 18.4764 56.0722 18.6926 56.0722 18.9592V21.1885C56.0722 21.4551 55.8561 21.6712 55.5895 21.6712H53.3602C53.0936 21.6712 52.8774 21.4551 52.8774 21.1885V18.9592Z" fill="white"/>
<path d="M17.709 54.192C17.709 53.9254 17.9251 53.7092 18.1917 53.7092H20.421C20.6876 53.7092 20.9038 53.9254 20.9038 54.192V56.4213C20.9038 56.6879 20.6876 56.904 20.421 56.904H18.1917C17.9251 56.904 17.709 56.6879 17.709 56.4213V54.192Z" fill="white"/>
<path d="M23.5708 54.192C23.5708 53.9254 23.7869 53.7092 24.0535 53.7092H26.2828C26.5494 53.7092 26.7656 53.9254 26.7656 54.192V56.4213C26.7656 56.6879 26.5494 56.904 26.2828 56.904H24.0535C23.7869 56.904 23.5708 56.6879 23.5708 56.4213V54.192Z" fill="white"/>
<path d="M29.4316 54.192C29.4316 53.9254 29.6478 53.7092 29.9144 53.7092H32.1437C32.4103 53.7092 32.6264 53.9254 32.6264 54.192V56.4213C32.6264 56.6879 32.4103 56.904 32.1437 56.904H29.9144C29.6478 56.904 29.4316 56.6879 29.4316 56.4213V54.192Z" fill="white"/>
<path d="M35.293 54.192C35.293 53.9254 35.5091 53.7092 35.7757 53.7092H38.005C38.2716 53.7092 38.4877 53.9254 38.4877 54.192V56.4213C38.4877 56.6879 38.2716 56.904 38.005 56.904H35.7757C35.5091 56.904 35.293 56.6879 35.293 56.4213V54.192Z" fill="white"/>
<path d="M41.1543 54.192C41.1543 53.9254 41.3704 53.7092 41.637 53.7092H43.8663C44.1329 53.7092 44.3491 53.9254 44.3491 54.192V56.4213C44.3491 56.6879 44.1329 56.904 43.8663 56.904H41.637C41.3704 56.904 41.1543 56.6879 41.1543 56.4213V54.192Z" fill="white"/>
<path d="M47.0161 54.192C47.0161 53.9254 47.2322 53.7092 47.4988 53.7092H49.7282C49.9948 53.7092 50.2109 53.9254 50.2109 54.192V56.4213C50.2109 56.6879 49.9948 56.904 49.7282 56.904H47.4988C47.2322 56.904 47.0161 56.6879 47.0161 56.4213V54.192Z" fill="white"/>
<path d="M52.8774 54.192C52.8774 53.9254 53.0936 53.7092 53.3602 53.7092H55.5895C55.8561 53.7092 56.0722 53.9254 56.0722 54.192V56.4213C56.0722 56.6879 55.8561 56.904 55.5895 56.904H53.3602C53.0936 56.904 52.8774 56.6879 52.8774 56.4213V54.192Z" fill="white"/>
<path d="M35.293 8.41367C35.293 7.53146 36.0081 6.81628 36.8904 6.81628C37.7726 6.81628 38.4877 7.53146 38.4877 8.41367C38.4877 9.29588 37.7726 10.0111 36.8904 10.0111C36.0081 10.0111 35.293 9.29588 35.293 8.41367Z" fill="white"/>
<path d="M35.293 14.244C35.293 13.3618 36.0081 12.6466 36.8904 12.6466C37.7726 12.6466 38.4877 13.3618 38.4877 14.244C38.4877 15.1262 37.7726 15.8414 36.8904 15.8414C36.0081 15.8414 35.293 15.1262 35.293 14.244Z" fill="white"/>
<path d="M35.293 25.335C35.293 24.8018 35.7252 24.3695 36.2584 24.3695H37.5223C38.0555 24.3695 38.4877 24.8018 38.4877 25.335V26.5988C38.4877 27.132 38.0555 27.5643 37.5223 27.5643H36.2584C35.7252 27.5643 35.293 27.132 35.293 26.5988V25.335Z" fill="#39B54A"/>
<path d="M35.293 31.1652C35.293 30.632 35.7252 30.1997 36.2584 30.1997H37.5223C38.0555 30.1997 38.4877 30.632 38.4877 31.1652V32.429C38.4877 32.9622 38.0555 33.3945 37.5223 33.3945H36.2584C35.7252 33.3945 35.293 32.9622 35.293 32.429V31.1652Z" fill="#0EB1D2"/>
<path d="M52.8774 36.5123C52.8774 36.2457 53.0936 36.0295 53.3602 36.0295H55.5895C55.8561 36.0295 56.0722 36.2457 56.0722 36.5123V38.7416C56.0722 39.0082 55.8561 39.2243 55.5895 39.2243H53.3602C53.0936 39.2243 52.8774 39.0082 52.8774 38.7416V36.5123Z" fill="white"/>
<path d="M52.8774 24.8522C52.8774 24.5856 53.0936 24.3695 53.3602 24.3695H55.5895C55.8561 24.3695 56.0722 24.5856 56.0722 24.8522V27.0815C56.0722 27.3481 55.8561 27.5643 55.5895 27.5643H53.3602C53.0936 27.5643 52.8774 27.3481 52.8774 27.0815V24.8522Z" fill="white"/>
<path d="M52.8774 30.6824C52.8774 30.4158 53.0936 30.1997 53.3602 30.1997H55.5895C55.8561 30.1997 56.0722 30.4158 56.0722 30.6824V32.9117C56.0722 33.1783 55.8561 33.3945 55.5895 33.3945H53.3602C53.0936 33.3945 52.8774 33.1783 52.8774 32.9117V30.6824Z" fill="white"/>
<path d="M52.8774 42.4057C52.8774 42.1391 53.0936 41.923 53.3602 41.923H55.5895C55.8561 41.923 56.0722 42.1391 56.0722 42.4057V44.635C56.0722 44.9016 55.8561 45.1177 55.5895 45.1177H53.3602C53.0936 45.1177 52.8774 44.9016 52.8774 44.635V42.4057Z" fill="white"/>
<path d="M52.8774 48.2355C52.8774 47.9689 53.0936 47.7528 53.3602 47.7528H55.5895C55.8561 47.7528 56.0722 47.9689 56.0722 48.2355V50.4648C56.0722 50.7314 55.8561 50.9476 55.5895 50.9476H53.3602C53.0936 50.9476 52.8774 50.7314 52.8774 50.4648V48.2355Z" fill="white"/>
<path d="M17.709 25.335C17.709 24.8018 18.1412 24.3695 18.6744 24.3695H19.9383C20.4715 24.3695 20.9038 24.8018 20.9038 25.335V26.5988C20.9038 27.132 20.4715 27.5643 19.9383 27.5643H18.6744C18.1412 27.5643 17.709 27.132 17.709 26.5988V25.335Z" fill="#0EB1D2"/>
<path d="M17.709 31.1652C17.709 30.632 18.1412 30.1997 18.6744 30.1997H19.9383C20.4715 30.1997 20.9038 30.632 20.9038 31.1652V32.429C20.9038 32.9622 20.4715 33.3945 19.9383 33.3945H18.6744C18.1412 33.3945 17.709 32.9622 17.709 32.429V31.1652Z" fill="#39B54A"/>
<path d="M17.709 42.4057C17.709 42.1391 17.9251 41.923 18.1917 41.923H20.421C20.6876 41.923 20.9038 42.1391 20.9038 42.4057V44.635C20.9038 44.9016 20.6876 45.1177 20.421 45.1177H18.1917C17.9251 45.1177 17.709 44.9016 17.709 44.635V42.4057Z" fill="white"/>
<path d="M17.709 48.2355C17.709 47.9689 17.9251 47.7528 18.1917 47.7528H20.421C20.6876 47.7528 20.9038 47.9689 20.9038 48.2355V50.4648C20.9038 50.7314 20.6876 50.9476 20.421 50.9476H18.1917C17.9251 50.9476 17.709 50.7314 17.709 50.4648V48.2355Z" fill="white"/>
<path d="M0.0722656 20.0738C0.0722656 19.1916 0.787438 18.4764 1.66965 18.4764C2.55186 18.4764 3.26703 19.1916 3.26703 20.0738C3.26703 20.956 2.55186 21.6712 1.66965 21.6712C0.787438 21.6712 0.0722656 20.956 0.0722656 20.0738Z" fill="white"/>
<path d="M0.0722656 8.41367C0.0722656 7.53146 0.787438 6.81628 1.66965 6.81628C2.55186 6.81628 3.26703 7.53146 3.26703 8.41367C3.26703 9.29588 2.55186 10.0111 1.66965 10.0111C0.787438 10.0111 0.0722656 9.29588 0.0722656 8.41367Z" fill="white"/>
<path d="M0.0722656 14.244C0.0722656 13.3618 0.787438 12.6466 1.66965 12.6466C2.55186 12.6466 3.26703 13.3618 3.26703 14.244C3.26703 15.1262 2.55186 15.8414 1.66965 15.8414C0.787438 15.8414 0.0722656 15.1262 0.0722656 14.244Z" fill="white"/>
<path d="M0.0722656 25.9669C0.0722656 25.0847 0.787438 24.3695 1.66965 24.3695C2.55186 24.3695 3.26703 25.0847 3.26703 25.9669C3.26703 26.8491 2.55186 27.5643 1.66965 27.5643C0.787438 27.5643 0.0722656 26.8491 0.0722656 25.9669Z" fill="white"/>
<path d="M0.0722656 31.7971C0.0722656 30.9149 0.787438 30.1997 1.66965 30.1997C2.55186 30.1997 3.26703 30.9149 3.26703 31.7971C3.26703 32.6793 2.55186 33.3945 1.66965 33.3945C0.787438 33.3945 0.0722656 32.6793 0.0722656 31.7971Z" fill="white"/>
<path d="M223.867 4.13586V0.859863H227.143V4.13586H230.419V7.41186H243.523V13.9639H240.247V30.3439H217.315V13.9639H240.247V10.6879H217.315V13.9639H214.039V7.41186H227.143V4.13586H223.867ZM230.419 27.0679H236.971V23.7919H230.419V27.0679ZM220.591 27.0679H227.143V23.7919H220.591V27.0679ZM230.419 20.5159H236.971V17.2399H230.419V20.5159ZM220.591 20.5159H227.143V17.2399H220.591V20.5159Z" fill="#0EB1D2"/>
<path d="M180.301 30.3439V27.0679H183.577V20.5159H173.749V17.2399H183.577V13.9639H177.025V10.6879H193.405V13.9639H186.853V17.2399H196.681V20.5159H186.853V30.3439H180.301ZM199.957 4.13586V10.6879H196.681V7.41186H173.749V10.6879H170.473V4.13586H180.301V0.859863H183.577V4.13586H199.957Z" fill="#39B54A"/>
<path d="M126.907 30.3439V27.0679H130.183V30.3439H126.907ZM126.907 13.9639V10.6879H156.391V13.9639H146.563V27.0679H153.115V23.7919H156.391V30.3439H146.563V27.0679H143.287V13.9639H136.735V23.7919H133.459V27.0679H130.183V23.7919H133.459V13.9639H126.907ZM130.183 4.13586V0.859863H153.115V4.13586H130.183Z" fill="#FBB03B"/>
<path d="M96.4523 30.3439V27.0679H103.004V30.3439H96.4523ZM93.1763 23.7919V20.5159H96.4523V23.7919H93.1763ZM83.3483 20.5159V17.2399H89.9003V20.5159H83.3483ZM80.0723 13.9639V10.6879H83.3483V13.9639H80.0723ZM103.004 27.0679V23.7919H106.28V27.0679H103.004ZM106.28 23.7919V20.5159H109.556V23.7919H106.28ZM103.004 23.7919H99.7283V20.5159H103.004V23.7919ZM109.556 20.5159V17.2399H99.7283V20.5159H96.4523V17.2399H99.7283V13.9639H103.004V10.6879H106.28V13.9639H112.832V20.5159H109.556ZM89.9003 17.2399V13.9639H93.1763V17.2399H89.9003ZM93.1763 13.9639V10.6879H96.4523V13.9639H93.1763ZM89.9003 13.9639H86.6243V10.6879H89.9003V13.9639ZM96.4523 10.6879V7.41186H86.6243V10.6879H83.3483V7.41186H86.6243V4.13586H89.9003V0.859863H93.1763V4.13586H99.7283V10.6879H96.4523Z" fill="#D64933"/>
<path d="M85.9814 52.9759V57.3439H83.7974V42.0559H90.3494V44.2399H92.5334V50.7919H90.3494V52.9759H85.9814ZM85.9814 50.7919H90.3494V44.2399H85.9814V50.7919ZM228.749 57.3439V55.1599H230.933V57.3439H228.749ZM230.933 55.1599V52.9759H233.117V50.7919H230.933V48.6079H233.117V50.7919H235.301V52.9759H233.117V55.1599H230.933ZM235.301 50.7919V42.0559H237.485V50.7919H235.301ZM230.933 48.6079H228.749V42.0559H230.933V48.6079Z" fill="#D64933"/>
<path d="M110.655 57.3439H101.919V42.0559H104.103V55.1599H110.655V57.3439ZM208.447 44.2399V42.0559H219.367V44.2399H214.999V57.3439H212.815V44.2399H208.447Z" fill="#FBB03B"/>
<path d="M128.777 57.3439H122.225V55.1599H128.777V57.3439ZM128.777 55.1599V42.0559H130.961V55.1599H128.777ZM122.225 55.1599H120.041V42.0559H122.225V55.1599ZM199.072 42.0559V57.3439H196.888V42.0559H199.072Z" fill="#39B54A"/>
<path d="M149.079 52.9759V57.3439H146.895V52.9759H149.079ZM142.527 52.9759V57.3439H140.343V42.0559H146.895V44.2399H149.079V50.7919H146.895V52.9759H142.527ZM142.527 50.7919H146.895V44.2399H142.527V50.7919ZM187.502 57.3439H178.766V42.0559H180.95V55.1599H187.502V57.3439Z" fill="#0EB1D2"/>
<path d="M169.385 48.6079V57.3439H167.201V52.9759H160.649V57.3439H158.465V48.6079H160.649V50.7919H167.201V48.6079H169.385ZM167.201 48.6079H165.017V44.2399H167.201V48.6079ZM160.649 48.6079V44.2399H162.833V48.6079H160.649ZM165.017 44.2399H162.833V42.0559H165.017V44.2399Z" fill="white"/>
<path d="M27.3123 25.8671C27.384 25.8616 27.5025 25.812 27.6679 25.7183C27.8333 25.619 27.9463 25.5667 28.007 25.5612C28.0345 25.5612 28.0593 25.5749 28.0814 25.6025C28.109 25.6246 28.1227 25.6494 28.1227 25.6769C28.1227 25.7486 28.0511 25.8313 27.9077 25.925C27.8636 25.9581 27.7534 26.0187 27.5769 26.107C27.4005 26.1952 27.282 26.2668 27.2213 26.322C27.2103 26.3385 27.1579 26.435 27.0642 26.6114C26.9705 26.7878 26.9071 26.8843 26.874 26.9008C26.7472 27.0001 26.6728 27.0662 26.6507 27.0993C26.6287 27.1324 26.6066 27.2068 26.5846 27.3226C26.5791 27.3888 26.5736 27.4384 26.568 27.4715C26.568 27.499 26.5708 27.5211 26.5763 27.5376C26.5818 27.5541 26.5928 27.5624 26.6094 27.5624C26.6259 27.5624 26.6507 27.5541 26.6838 27.5376C26.7334 27.51 26.8051 27.4935 26.8988 27.488C26.9981 27.477 27.0615 27.4825 27.089 27.5045C27.1607 27.5652 27.1965 27.6368 27.1965 27.7195C27.1965 27.7692 27.1745 27.8408 27.1304 27.9346C27.0863 28.0228 27.0504 28.0724 27.0229 28.0834C27.0008 28.0889 26.976 28.1137 26.9484 28.1578C26.9319 28.1909 26.8161 28.3177 26.6011 28.5382C26.4357 28.7036 26.3227 28.8304 26.2621 28.9186C26.2069 29.0013 26.1766 29.0896 26.1711 29.1833C26.1711 29.2274 26.1739 29.2549 26.1794 29.266C26.1904 29.277 26.218 29.2825 26.2621 29.2825C26.3172 29.2991 26.3585 29.3128 26.3861 29.3239C26.4137 29.3349 26.433 29.3514 26.444 29.3735C26.4605 29.3955 26.4688 29.4231 26.4688 29.4562C26.4688 29.4893 26.4688 29.5306 26.4688 29.5802C26.4688 29.6298 26.4688 29.6905 26.4688 29.7622C26.4688 29.9717 26.4743 30.0764 26.4853 30.0764C26.5019 30.0764 26.5487 30.0461 26.6259 29.9854C26.7086 29.9248 26.7527 29.8862 26.7582 29.8697C26.7693 29.8531 26.7831 29.7759 26.7996 29.6381C26.8161 29.5003 26.8244 29.3928 26.8244 29.3156C26.8244 29.1612 26.8823 29.084 26.9981 29.084C27.0587 29.084 27.1001 29.1061 27.1221 29.1502C27.1442 29.1943 27.1552 29.2715 27.1552 29.3817C27.1552 29.492 27.1607 29.5554 27.1717 29.572C27.1883 29.583 27.2296 29.5554 27.2958 29.4893C27.3399 29.4396 27.3978 29.3983 27.4694 29.3652C27.5466 29.3266 27.599 29.3128 27.6266 29.3239C27.6817 29.3459 27.6376 29.4314 27.4942 29.5802C27.4612 29.6133 27.4198 29.6546 27.3702 29.7043C27.1828 29.8972 27.089 30.002 27.089 30.0185C27.056 30.3658 27.0036 30.6801 26.9319 30.9613L26.8906 31.1267L26.965 31.1928C26.976 31.2093 27.0008 31.2314 27.0394 31.259C27.078 31.2865 27.1056 31.3141 27.1221 31.3417C27.1442 31.3692 27.1552 31.4051 27.1552 31.4492C27.1552 31.5208 27.1276 31.5677 27.0725 31.5898C27.0174 31.6118 26.954 31.6035 26.8823 31.5649C26.8382 31.5429 26.8079 31.5429 26.7913 31.5649C26.7141 31.6697 26.5791 31.9205 26.3861 32.3175C26.3255 32.4443 26.2235 32.5325 26.0801 32.5821C25.9368 32.6317 25.8183 32.6014 25.7245 32.4912C25.6804 32.436 25.6501 32.3754 25.6336 32.3092C25.6225 32.2431 25.6336 32.199 25.6666 32.1769C25.6832 32.1604 25.697 32.1549 25.708 32.1604C25.7245 32.1714 25.7604 32.2155 25.8155 32.2927C25.8982 32.414 26.0195 32.323 26.1794 32.0198C26.2124 31.9536 26.2483 31.8792 26.2869 31.7965C26.3696 31.6201 26.3999 31.5264 26.3778 31.5153C26.3392 31.4933 26.2317 31.485 26.0553 31.4905C25.8899 31.496 25.7934 31.4464 25.7659 31.3417C25.7273 31.2149 25.7328 31.1211 25.7824 31.0605C25.8927 30.9172 25.821 30.9282 25.5674 31.0936C25.3965 31.2038 25.2807 31.2672 25.2201 31.2838C25.165 31.3003 25.1098 31.281 25.0547 31.2259C24.972 31.1487 24.9665 31.0743 25.0381 31.0026C25.0933 30.9695 25.2228 30.8979 25.4268 30.7876C25.6363 30.6773 25.7576 30.6112 25.7907 30.5891C25.9836 30.5119 26.0994 30.2583 26.138 29.8283C26.138 29.7291 26.1297 29.6574 26.1132 29.6133C26.0967 29.5637 26.0608 29.503 26.0057 29.4314C25.9451 29.3597 25.9175 29.2935 25.923 29.2329C25.934 29.1888 25.9285 29.1585 25.9065 29.1419C25.8899 29.1254 25.8651 29.1309 25.832 29.1585C25.7714 29.2136 25.7052 29.2467 25.6336 29.2577C25.5619 29.2687 25.5123 29.2522 25.4847 29.2081C25.4627 29.175 25.4627 29.1309 25.4847 29.0758C25.5288 28.971 25.5288 28.8111 25.4847 28.5961C25.4406 28.3811 25.4378 28.2212 25.4764 28.1165C25.5095 28.0062 25.5371 27.9373 25.5591 27.9097C25.6032 27.8932 25.6281 27.8849 25.6336 27.8849C25.6391 27.8794 25.6501 27.8904 25.6666 27.918C25.6832 27.9456 25.7025 27.9676 25.7245 27.9842L25.7907 28.0503L25.8899 27.9676C25.9175 27.9401 25.9699 27.9042 26.0471 27.8601C26.1297 27.8105 26.1876 27.7609 26.2207 27.7113C26.2593 27.6617 26.2758 27.59 26.2703 27.4963L26.2786 27.3557L26.1794 27.3474C26.1518 27.3364 26.1049 27.3254 26.0388 27.3143C25.9781 27.2978 25.934 27.284 25.9065 27.273C25.8789 27.262 25.8486 27.2399 25.8155 27.2068C25.7879 27.1682 25.7742 27.1186 25.7742 27.058C25.7742 26.9753 25.7521 26.9312 25.708 26.9257C25.6694 26.9201 25.6198 26.9312 25.5591 26.9587C25.5536 26.9753 25.4957 26.9946 25.3855 27.0166C25.2752 27.0332 25.1429 27.0525 24.9885 27.0745C24.8342 27.0966 24.7432 27.1103 24.7156 27.1159C24.666 27.1269 24.6191 27.1103 24.575 27.0662C24.5199 27.0221 24.4979 26.9808 24.5089 26.9422C24.5254 26.9036 24.5723 26.8623 24.6495 26.8181C24.7377 26.7685 24.8617 26.7382 25.0216 26.7272C25.2642 26.7106 25.4461 26.6748 25.5674 26.6197C25.6556 26.5811 25.7052 26.5425 25.7163 26.5039C25.7273 26.4653 25.719 26.3716 25.6915 26.2227C25.6804 26.1676 25.6694 26.1042 25.6584 26.0325C25.6529 25.9553 25.6446 25.8919 25.6336 25.8423C25.6225 25.7927 25.606 25.7514 25.5839 25.7183C25.5123 25.6576 25.5261 25.6053 25.6253 25.5612C25.708 25.5226 25.7714 25.5226 25.8155 25.5612C25.8376 25.5777 25.8596 25.6135 25.8817 25.6687C25.9037 25.7238 25.9258 25.7899 25.9478 25.8671C25.9699 25.9388 25.9864 25.9884 25.9974 26.016C26.014 26.038 26.0305 26.0408 26.0471 26.0243C26.0691 26.0022 26.0939 25.9746 26.1215 25.9416C26.149 25.9085 26.1683 25.8947 26.1794 25.9002C26.2124 25.8947 26.229 25.8533 26.229 25.7762C26.229 25.6328 26.2758 25.5612 26.3696 25.5612C26.4082 25.5667 26.455 25.5832 26.5102 25.6108C26.5653 25.6328 26.648 25.6411 26.7582 25.6356C26.885 25.6301 26.9815 25.6411 27.0477 25.6687C27.1138 25.6962 27.1745 25.7403 27.2296 25.801C27.2517 25.8451 27.2792 25.8671 27.3123 25.8671ZM26.6755 25.9664C26.6314 25.9719 26.6066 26.0022 26.6011 26.0573C26.5956 26.107 26.6039 26.1428 26.6259 26.1648C26.648 26.1759 26.7031 26.1621 26.7913 26.1235C26.9512 26.0628 26.9788 26.0077 26.874 25.9581C26.8134 25.9305 26.7472 25.9333 26.6755 25.9664ZM26.2703 26.3633C26.2869 26.3357 26.2896 26.2779 26.2786 26.1896C26.2676 26.0959 26.24 26.0491 26.1959 26.0491C26.1022 26.0601 26.0498 26.0794 26.0388 26.107C26.0278 26.1345 26.0278 26.1869 26.0388 26.2641C26.0498 26.3413 26.0636 26.3881 26.0801 26.4047C26.1022 26.4157 26.1353 26.4184 26.1794 26.4129C26.2235 26.4019 26.2538 26.3854 26.2703 26.3633ZM26.6507 26.6362C26.6673 26.6528 26.6948 26.6307 26.7334 26.5701C26.761 26.5315 26.7582 26.5094 26.7252 26.5039C26.7031 26.5039 26.6811 26.5232 26.659 26.5618C26.6425 26.6004 26.6397 26.6252 26.6507 26.6362ZM26.3034 26.876C26.3034 26.7878 26.2951 26.7354 26.2786 26.7189C26.2621 26.7024 26.2317 26.7079 26.1876 26.7354C26.1601 26.7575 26.1408 26.8181 26.1297 26.9174C26.1077 27.0552 26.127 27.1269 26.1876 27.1324C26.2373 27.1324 26.2731 27.0855 26.2951 26.9918C26.3062 26.9532 26.3089 26.9146 26.3034 26.876ZM26.6921 27.8849C26.6535 27.8739 26.6094 27.8904 26.5598 27.9346C26.5102 27.9787 26.4881 28.02 26.4936 28.0586C26.4936 28.0807 26.4964 28.0944 26.5019 28.0999C26.5074 28.0999 26.5267 28.0917 26.5598 28.0751C26.5763 28.0641 26.6011 28.0338 26.6342 27.9842C26.6728 27.9346 26.6921 27.9015 26.6921 27.8849ZM26.1463 28.2323C26.1573 28.1716 26.1518 28.1413 26.1297 28.1413C26.1077 28.1468 26.0581 28.1689 25.9809 28.2075C25.8982 28.2516 25.8486 28.2846 25.832 28.3067C25.8155 28.3232 25.8017 28.3618 25.7907 28.4225C25.7797 28.5217 25.7934 28.5851 25.832 28.6127C25.8761 28.6402 25.934 28.6237 26.0057 28.563C26.0774 28.5024 26.1242 28.3921 26.1463 28.2323ZM26.7334 30.3576C26.7334 30.3024 26.6618 30.3245 26.5184 30.4237C26.3585 30.5285 26.251 30.7021 26.1959 30.9447C26.1683 31.0495 26.1601 31.1156 26.1711 31.1432C26.1876 31.1708 26.2345 31.179 26.3117 31.168C26.4054 31.157 26.4688 31.1432 26.5019 31.1267C26.5405 31.1101 26.5653 31.0798 26.5763 31.0357C26.6811 30.6828 26.7334 30.4568 26.7334 30.3576ZM29.9007 27.3474C29.8732 27.4632 29.8263 27.6479 29.7601 27.9015C29.6995 28.1551 29.6526 28.3536 29.6196 28.4969C29.5754 28.5906 29.5672 28.6375 29.5947 28.6375C29.6058 28.6375 29.6692 28.5961 29.7849 28.5134C29.807 28.4969 29.8235 28.4886 29.8346 28.4886C29.8842 28.4611 29.9807 28.3784 30.124 28.2405C30.2839 28.0972 30.4134 28.0035 30.5127 27.9594C30.6174 27.9097 30.7112 27.907 30.7938 27.9511C30.8655 27.9897 30.9014 28.0669 30.9014 28.1826C30.8958 28.3701 30.8407 28.6457 30.736 29.0096C30.6312 29.3735 30.5292 29.605 30.43 29.7043C30.3804 29.7649 30.3611 29.8145 30.3721 29.8531C30.3886 29.8917 30.441 29.9524 30.5292 30.0351C30.6009 30.1012 30.6533 30.1591 30.6863 30.2087C30.7249 30.2528 30.7635 30.2914 30.8021 30.3245C30.8462 30.3576 30.9455 30.4182 31.0998 30.5064C31.2983 30.6277 31.4334 30.7159 31.505 30.7711C31.5822 30.8207 31.6539 30.873 31.7201 30.9282C31.7862 30.9778 31.8772 31.0412 31.993 31.1184C32.0646 31.168 32.2245 31.3031 32.4726 31.5236C32.7262 31.7386 32.8806 31.8627 32.9357 31.8957C32.9798 31.9233 33.0074 31.9454 33.0184 31.9619C33.0404 32.006 33.046 32.0611 33.0349 32.1273C33.0239 32.1934 32.9963 32.2486 32.9522 32.2927C32.9081 32.3368 32.8613 32.3423 32.8117 32.3092C32.7455 32.2761 32.5939 32.1411 32.3568 31.904C32.1253 31.6614 31.9792 31.5319 31.9185 31.5153C31.902 31.5153 31.8469 31.474 31.7531 31.3913C31.5657 31.2204 31.257 31.0054 30.8269 30.7462C30.7112 30.6801 30.5678 30.5671 30.3969 30.4072C30.2536 30.2694 30.1598 30.1922 30.1157 30.1756C30.0716 30.1591 30.033 30.1839 30 30.2501C29.9724 30.2997 29.9366 30.3438 29.8925 30.3824C29.8539 30.421 29.8042 30.4596 29.7436 30.4982C29.6885 30.5367 29.6388 30.5781 29.5947 30.6222C29.501 30.6994 29.4183 30.7545 29.3467 30.7876C29.2805 30.8207 29.1923 30.8427 29.082 30.8538C28.9552 30.8648 28.8643 30.8565 28.8091 30.8289C28.754 30.8014 28.7402 30.7518 28.7678 30.6801C28.7953 30.6084 28.8394 30.5919 28.9001 30.6305C28.9718 30.6746 29.0903 30.6415 29.2557 30.5312C29.3825 30.4485 29.4955 30.3493 29.5947 30.2335C29.7381 30.0792 29.7822 29.9965 29.7271 29.9854C29.716 29.9799 29.6885 29.9717 29.6444 29.9606C29.6058 29.9496 29.5727 29.9413 29.5451 29.9358C29.5231 29.9303 29.4928 29.922 29.4542 29.911C29.4211 29.9 29.3908 29.8917 29.3632 29.8862C29.3411 29.8752 29.3191 29.8669 29.297 29.8614C29.275 29.8504 29.2584 29.8421 29.2474 29.8366C29.2364 29.8256 29.2309 29.8173 29.2309 29.8118C29.1592 29.7401 29.1785 29.6795 29.2888 29.6298C29.4762 29.5582 29.6857 29.5664 29.9173 29.6546C29.9724 29.6767 30.0137 29.6822 30.0413 29.6712C30.0909 29.6546 30.1681 29.5278 30.2729 29.2908C30.3831 29.0482 30.4493 28.858 30.4713 28.7202C30.4713 28.6981 30.4824 28.654 30.5044 28.5879C30.5265 28.5162 30.5375 28.4611 30.5375 28.4225C30.543 28.3839 30.5347 28.3453 30.5127 28.3067C30.4961 28.3067 30.4162 28.3728 30.2729 28.5052C29.8539 28.8911 29.5589 29.084 29.388 29.084C29.3218 29.0951 29.2722 29.0868 29.2391 29.0592C29.2061 29.0262 29.1895 28.982 29.1895 28.9269C29.1895 28.8718 29.195 28.8194 29.2061 28.7698C29.2171 28.7202 29.2336 28.6678 29.2557 28.6127C29.2943 28.5024 29.3274 28.3866 29.3549 28.2653C29.388 28.1385 29.4211 27.9952 29.4542 27.8353C29.4928 27.6754 29.5231 27.5514 29.5451 27.4632C29.5727 27.386 29.5865 27.3061 29.5865 27.2234C29.5865 27.1407 29.5975 27.0828 29.6196 27.0497C29.6857 26.967 29.7684 26.967 29.8676 27.0497C29.9062 27.0883 29.9255 27.1241 29.9255 27.1572C29.931 27.1848 29.9228 27.2482 29.9007 27.3474Z" fill="white"/>
<path d="M45.8783 43.9713C45.9389 44.021 46.0216 44.0733 46.1264 44.1285C46.2366 44.1781 46.3276 44.2112 46.3993 44.2277C46.482 44.2718 46.5261 44.3297 46.5316 44.4014C46.5371 44.473 46.5095 44.5447 46.4489 44.6164C46.3882 44.6881 46.3304 44.7487 46.2752 44.7983C46.2256 44.8424 46.1787 44.881 46.1346 44.9141C46.096 44.8865 46.1043 44.8204 46.1594 44.7156C46.2146 44.6054 46.2256 44.5282 46.1925 44.4841C46.1594 44.473 46.1098 44.4593 46.0437 44.4427C45.983 44.4207 45.9279 44.3986 45.8783 44.3766C45.8287 44.3545 45.779 44.3214 45.7294 44.2773C45.4372 44.0789 45.3738 43.9493 45.5392 43.8887C45.677 43.8445 45.7901 43.8721 45.8783 43.9713ZM43.0997 44.8479C43.1107 44.8038 43.119 44.7763 43.1245 44.7652C43.13 44.7542 43.1465 44.7432 43.1741 44.7322C43.2017 44.7156 43.2402 44.7156 43.2899 44.7322C43.4167 44.7377 43.4801 44.7818 43.4801 44.8645C43.4746 44.9306 43.3753 45.1098 43.1824 45.402C42.9949 45.6942 42.9012 45.8568 42.9012 45.8899C42.9012 45.9175 42.9288 45.9313 42.9839 45.9313C43.039 45.9313 43.0831 45.945 43.1162 45.9726C43.1548 45.9947 43.1824 46.036 43.1989 46.0967C43.2154 46.1518 43.2265 46.2042 43.232 46.2538C43.2375 46.2979 43.2402 46.364 43.2402 46.4523C43.2458 46.535 43.2513 46.5956 43.2568 46.6342C43.2954 46.987 43.3064 47.4474 43.2899 48.0152C43.2788 48.5776 43.243 49.0131 43.1824 49.3218C43.1603 49.399 43.119 49.4514 43.0583 49.479C43.0032 49.501 42.948 49.4872 42.8929 49.4376C42.8378 49.3825 42.8405 49.1923 42.9012 48.867C42.9343 48.7016 42.9508 48.3157 42.9508 47.7092C42.9563 47.3344 42.9563 47.0863 42.9508 46.965C42.9453 46.8382 42.9315 46.7169 42.9095 46.6011C42.8874 46.4853 42.8681 46.3199 42.8516 46.1049C42.824 46.0663 42.7937 46.0856 42.7606 46.1628C42.7496 46.1904 42.7413 46.2207 42.7358 46.2538C42.7248 46.3255 42.6669 46.4385 42.5621 46.5928C42.4574 46.7472 42.3774 46.8409 42.3223 46.874C42.2176 46.9347 42.1459 46.9291 42.1073 46.8575C42.0908 46.8299 42.1045 46.7637 42.1486 46.659C42.1983 46.5487 42.303 46.3282 42.4629 45.9974C42.5952 45.7273 42.7055 45.5288 42.7937 45.402C42.8819 45.2752 42.9839 45.0905 43.0997 44.8479ZM46.3827 48.6189C46.3607 48.6189 46.2587 48.6465 46.0767 48.7016C45.9003 48.7567 45.7873 48.7788 45.7377 48.7678C45.5117 48.7898 45.4262 48.6933 45.4813 48.4783C45.5034 48.4232 45.5365 48.3846 45.5806 48.3626C45.6247 48.3405 45.7129 48.3212 45.8452 48.3047C46.0161 48.2771 46.1016 48.2523 46.1016 48.2302C46.1016 48.2192 46.085 48.2082 46.0519 48.1972C45.9968 48.1751 45.9582 48.142 45.9362 48.0979C45.9196 48.0483 45.9114 47.9628 45.9114 47.8416C45.9169 47.5218 45.9114 47.2158 45.8948 46.9236C45.8838 46.6314 45.8672 46.4798 45.8452 46.4688C45.8342 46.4743 45.768 46.5157 45.6467 46.5928C45.5309 46.6645 45.4345 46.7196 45.3573 46.7582C45.2856 46.7968 45.2195 46.8189 45.1588 46.8244C45.043 46.8795 44.9548 46.8547 44.8942 46.75C44.839 46.6452 44.8473 46.546 44.919 46.4523C44.919 46.4192 44.9603 46.4137 45.043 46.4357C45.1257 46.4523 45.1754 46.4578 45.1919 46.4523C45.462 46.3144 45.7377 46.138 46.0189 45.923C46.3055 45.7025 46.5509 45.4764 46.7549 45.2449C46.8265 45.1567 46.8844 45.1126 46.9285 45.1126C47.0057 45.1181 47.0553 45.1484 47.0774 45.2035C47.0994 45.2532 47.0856 45.311 47.036 45.3772C47.0085 45.4158 46.8596 45.5674 46.5895 45.832L46.1925 46.229L46.2008 46.4109C46.2173 46.4826 46.2311 46.7748 46.2421 47.2875C46.2532 47.8002 46.2614 48.0814 46.2669 48.131C46.4268 47.938 46.5619 47.6982 46.6722 47.4115C46.7879 47.1249 46.8431 46.8216 46.8376 46.5019C46.8596 46.0167 46.8899 45.7328 46.9285 45.6501C46.9561 45.606 46.9892 45.5894 47.0278 45.6005C47.0719 45.606 47.1049 45.6391 47.127 45.6997C47.149 45.7548 47.1628 45.81 47.1683 45.8651C47.1739 45.9202 47.1739 46.0663 47.1683 46.3034C47.1683 46.3971 47.1683 46.4605 47.1683 46.4936C47.1683 46.5267 47.1656 46.5708 47.1601 46.6259C47.1601 46.681 47.1601 46.7141 47.1601 46.7252C47.1601 46.7307 47.1546 46.7555 47.1435 46.7996C47.138 46.8382 47.1353 46.8602 47.1353 46.8657C47.1353 46.8713 47.1298 46.9016 47.1187 46.9567C47.1077 47.0063 47.0994 47.0422 47.0939 47.0642C47.0664 47.1965 47.0305 47.3233 46.9864 47.4446C46.9478 47.5604 46.8954 47.6844 46.8293 47.8168C46.7686 47.9491 46.7218 48.0511 46.6887 48.1227C46.7052 48.1558 46.7879 48.1586 46.9368 48.131C47.036 48.1089 47.3117 48.0841 47.7638 48.0566C48.2214 48.029 48.5025 48.0014 48.6073 47.9739C48.6569 47.9573 48.7038 47.9546 48.7479 47.9656C48.792 47.9711 48.8361 47.9711 48.8802 47.9656C48.9243 47.9601 48.9601 47.9408 48.9877 47.9077C49.0483 47.825 49.1586 47.8388 49.3185 47.9491C49.3626 48.0152 49.3598 48.1007 49.3102 48.2054C49.2606 48.3047 49.1861 48.3433 49.0869 48.3212C49.0483 48.3212 48.9132 48.3295 48.6817 48.346C48.4501 48.357 48.2848 48.3681 48.1855 48.3791C48.0918 48.3846 47.9374 48.3956 47.7224 48.4122C47.5074 48.4287 47.3365 48.4452 47.2097 48.4618C47.0829 48.4783 46.9396 48.5004 46.7797 48.5279C46.6253 48.5555 46.493 48.5858 46.3827 48.6189Z" fill="white"/>
</svg>
