<svg width="151" height="151" viewBox="0 0 151 151" fill="none" xmlns="http://www.w3.org/2000/svg">
<path d="M72.5801 68.3452C72.7832 68.3296 73.1191 68.189 73.5879 67.9233C74.0566 67.6421 74.377 67.4937 74.5488 67.478C74.627 67.478 74.6973 67.5171 74.7598 67.5952C74.8379 67.6577 74.877 67.728 74.877 67.8062C74.877 68.0093 74.6738 68.2437 74.2676 68.5093C74.1426 68.603 73.8301 68.7749 73.3301 69.0249C72.8301 69.2749 72.4941 69.478 72.3223 69.6343C72.291 69.6812 72.1426 69.9546 71.877 70.4546C71.6113 70.9546 71.4316 71.228 71.3379 71.2749C70.9785 71.5562 70.7676 71.7437 70.7051 71.8374C70.6426 71.9312 70.5801 72.1421 70.5176 72.4702C70.502 72.6577 70.4863 72.7983 70.4707 72.8921C70.4707 72.9702 70.4785 73.0327 70.4941 73.0796C70.5098 73.1265 70.541 73.1499 70.5879 73.1499C70.6348 73.1499 70.7051 73.1265 70.7988 73.0796C70.9395 73.0015 71.1426 72.9546 71.4082 72.939C71.6895 72.9077 71.8691 72.9233 71.9473 72.9858C72.1504 73.1577 72.252 73.3608 72.252 73.5952C72.252 73.7358 72.1895 73.939 72.0645 74.2046C71.9395 74.4546 71.8379 74.5952 71.7598 74.6265C71.6973 74.6421 71.627 74.7124 71.5488 74.8374C71.502 74.9312 71.1738 75.2905 70.5645 75.9155C70.0957 76.3843 69.7754 76.7437 69.6035 76.9937C69.4473 77.228 69.3613 77.478 69.3457 77.7437C69.3457 77.8687 69.3535 77.9468 69.3691 77.978C69.4004 78.0093 69.4785 78.0249 69.6035 78.0249C69.7598 78.0718 69.877 78.1108 69.9551 78.1421C70.0332 78.1733 70.0879 78.2202 70.1191 78.2827C70.166 78.3452 70.1895 78.4233 70.1895 78.5171C70.1895 78.6108 70.1895 78.728 70.1895 78.8687C70.1895 79.0093 70.1895 79.1812 70.1895 79.3843C70.1895 79.978 70.2051 80.2749 70.2363 80.2749C70.2832 80.2749 70.416 80.189 70.6348 80.0171C70.8691 79.8452 70.9941 79.7358 71.0098 79.689C71.041 79.6421 71.0801 79.4233 71.127 79.0327C71.1738 78.6421 71.1973 78.3374 71.1973 78.1187C71.1973 77.6812 71.3613 77.4624 71.6895 77.4624C71.8613 77.4624 71.9785 77.5249 72.041 77.6499C72.1035 77.7749 72.1348 77.9937 72.1348 78.3062C72.1348 78.6187 72.1504 78.7983 72.1816 78.8452C72.2285 78.8765 72.3457 78.7983 72.5332 78.6108C72.6582 78.4702 72.8223 78.353 73.0254 78.2593C73.2441 78.1499 73.3926 78.1108 73.4707 78.1421C73.627 78.2046 73.502 78.4468 73.0957 78.8687C73.002 78.9624 72.8848 79.0796 72.7441 79.2202C72.2129 79.7671 71.9473 80.064 71.9473 80.1108C71.8535 81.0952 71.7051 81.9858 71.502 82.7827L71.3848 83.2515L71.5957 83.439C71.627 83.4858 71.6973 83.5483 71.8066 83.6265C71.916 83.7046 71.9941 83.7827 72.041 83.8608C72.1035 83.939 72.1348 84.0405 72.1348 84.1655C72.1348 84.3687 72.0566 84.5015 71.9004 84.564C71.7441 84.6265 71.5645 84.603 71.3613 84.4937C71.2363 84.4312 71.1504 84.4312 71.1035 84.4937C70.8848 84.7905 70.502 85.5015 69.9551 86.6265C69.7832 86.9858 69.4941 87.2358 69.0879 87.3765C68.6816 87.5171 68.3457 87.4312 68.0801 87.1187C67.9551 86.9624 67.8691 86.7905 67.8223 86.603C67.791 86.4155 67.8223 86.2905 67.916 86.228C67.9629 86.1812 68.002 86.1655 68.0332 86.1812C68.0801 86.2124 68.1816 86.3374 68.3379 86.5562C68.5723 86.8999 68.916 86.6421 69.3691 85.7827C69.4629 85.5952 69.5645 85.3843 69.6738 85.1499C69.9082 84.6499 69.9941 84.3843 69.9316 84.353C69.8223 84.2905 69.5176 84.2671 69.0176 84.2827C68.5488 84.2983 68.2754 84.1577 68.1973 83.8608C68.0879 83.5015 68.1035 83.2358 68.2441 83.064C68.5566 82.6577 68.3535 82.689 67.6348 83.1577C67.1504 83.4702 66.8223 83.6499 66.6504 83.6968C66.4941 83.7437 66.3379 83.689 66.1816 83.5327C65.9473 83.314 65.9316 83.103 66.1348 82.8999C66.291 82.8062 66.6582 82.603 67.2363 82.2905C67.8301 81.978 68.1738 81.7905 68.2676 81.728C68.8145 81.5093 69.1426 80.7905 69.252 79.5718C69.252 79.2905 69.2285 79.0874 69.1816 78.9624C69.1348 78.8218 69.0332 78.6499 68.877 78.4468C68.7051 78.2437 68.627 78.0562 68.6426 77.8843C68.6738 77.7593 68.6582 77.6733 68.5957 77.6265C68.5488 77.5796 68.4785 77.5952 68.3848 77.6733C68.2129 77.8296 68.0254 77.9233 67.8223 77.9546C67.6191 77.9858 67.4785 77.939 67.4004 77.814C67.3379 77.7202 67.3379 77.5952 67.4004 77.439C67.5254 77.1421 67.5254 76.689 67.4004 76.0796C67.2754 75.4702 67.2676 75.0171 67.377 74.7202C67.4707 74.4077 67.5488 74.2124 67.6113 74.1343C67.7363 74.0874 67.8066 74.064 67.8223 74.064C67.8379 74.0483 67.8691 74.0796 67.916 74.1577C67.9629 74.2358 68.0176 74.2983 68.0801 74.3452L68.2676 74.5327L68.5488 74.2983C68.627 74.2202 68.7754 74.1187 68.9941 73.9937C69.2285 73.853 69.3926 73.7124 69.4863 73.5718C69.5957 73.4312 69.6426 73.228 69.627 72.9624L69.6504 72.564L69.3691 72.5405C69.291 72.5093 69.1582 72.478 68.9707 72.4468C68.7988 72.3999 68.6738 72.3608 68.5957 72.3296C68.5176 72.2983 68.4316 72.2358 68.3379 72.1421C68.2598 72.0327 68.2207 71.8921 68.2207 71.7202C68.2207 71.4858 68.1582 71.3608 68.0332 71.3452C67.9238 71.3296 67.7832 71.3608 67.6113 71.439C67.5957 71.4858 67.4316 71.5405 67.1191 71.603C66.8066 71.6499 66.4316 71.7046 65.9941 71.7671C65.5566 71.8296 65.2988 71.8687 65.2207 71.8843C65.0801 71.9155 64.9473 71.8687 64.8223 71.7437C64.666 71.6187 64.6035 71.5015 64.6348 71.3921C64.6816 71.2827 64.8145 71.1655 65.0332 71.0405C65.2832 70.8999 65.6348 70.814 66.0879 70.7827C66.7754 70.7358 67.291 70.6343 67.6348 70.478C67.8848 70.3687 68.0254 70.2593 68.0566 70.1499C68.0879 70.0405 68.0645 69.7749 67.9863 69.353C67.9551 69.1968 67.9238 69.0171 67.8926 68.814C67.877 68.5952 67.8535 68.4155 67.8223 68.2749C67.791 68.1343 67.7441 68.0171 67.6816 67.9233C67.4785 67.7515 67.5176 67.603 67.7988 67.478C68.0332 67.3687 68.2129 67.3687 68.3379 67.478C68.4004 67.5249 68.4629 67.6265 68.5254 67.7827C68.5879 67.939 68.6504 68.1265 68.7129 68.3452C68.7754 68.5483 68.8223 68.689 68.8535 68.7671C68.9004 68.8296 68.9473 68.8374 68.9941 68.7905C69.0566 68.728 69.127 68.6499 69.2051 68.5562C69.2832 68.4624 69.3379 68.4233 69.3691 68.439C69.4629 68.4233 69.5098 68.3062 69.5098 68.0874C69.5098 67.6812 69.6426 67.478 69.9082 67.478C70.0176 67.4937 70.1504 67.5405 70.3066 67.6187C70.4629 67.6812 70.6973 67.7046 71.0098 67.689C71.3691 67.6733 71.6426 67.7046 71.8301 67.7827C72.0176 67.8608 72.1895 67.9858 72.3457 68.1577C72.4082 68.2827 72.4863 68.3452 72.5801 68.3452ZM70.7754 68.6265C70.6504 68.6421 70.5801 68.728 70.5645 68.8843C70.5488 69.0249 70.5723 69.1265 70.6348 69.189C70.6973 69.2202 70.8535 69.1812 71.1035 69.0718C71.5566 68.8999 71.6348 68.7437 71.3379 68.603C71.166 68.5249 70.9785 68.5327 70.7754 68.6265ZM69.627 69.7515C69.6738 69.6733 69.6816 69.5093 69.6504 69.2593C69.6191 68.9937 69.541 68.8608 69.416 68.8608C69.1504 68.8921 69.002 68.9468 68.9707 69.0249C68.9395 69.103 68.9395 69.2515 68.9707 69.4702C69.002 69.689 69.041 69.8218 69.0879 69.8687C69.1504 69.8999 69.2441 69.9077 69.3691 69.8921C69.4941 69.8608 69.5801 69.814 69.627 69.7515ZM70.7051 70.5249C70.752 70.5718 70.8301 70.5093 70.9395 70.3374C71.0176 70.228 71.0098 70.1655 70.916 70.1499C70.8535 70.1499 70.791 70.2046 70.7285 70.314C70.6816 70.4233 70.6738 70.4937 70.7051 70.5249ZM69.7207 71.2046C69.7207 70.9546 69.6973 70.8062 69.6504 70.7593C69.6035 70.7124 69.5176 70.728 69.3926 70.8062C69.3145 70.8687 69.2598 71.0405 69.2285 71.3218C69.166 71.7124 69.2207 71.9155 69.3926 71.9312C69.5332 71.9312 69.6348 71.7983 69.6973 71.5327C69.7285 71.4233 69.7363 71.314 69.7207 71.2046ZM70.8223 74.064C70.7129 74.0327 70.5879 74.0796 70.4473 74.2046C70.3066 74.3296 70.2441 74.4468 70.2598 74.5562C70.2598 74.6187 70.2676 74.6577 70.2832 74.6733C70.2988 74.6733 70.3535 74.6499 70.4473 74.603C70.4941 74.5718 70.5645 74.4858 70.6582 74.3452C70.7676 74.2046 70.8223 74.1108 70.8223 74.064ZM69.2754 75.0483C69.3066 74.8765 69.291 74.7905 69.2285 74.7905C69.166 74.8062 69.0254 74.8687 68.8066 74.978C68.5723 75.103 68.4316 75.1968 68.3848 75.2593C68.3379 75.3062 68.2988 75.4155 68.2676 75.5874C68.2363 75.8687 68.2754 76.0483 68.3848 76.1265C68.5098 76.2046 68.6738 76.1577 68.877 75.9858C69.0801 75.814 69.2129 75.5015 69.2754 75.0483ZM70.9395 81.0718C70.9395 80.9155 70.7363 80.978 70.3301 81.2593C69.877 81.5562 69.5723 82.0483 69.416 82.7358C69.3379 83.0327 69.3145 83.2202 69.3457 83.2983C69.3926 83.3765 69.5254 83.3999 69.7441 83.3687C70.0098 83.3374 70.1895 83.2983 70.2832 83.2515C70.3926 83.2046 70.4629 83.1187 70.4941 82.9937C70.791 81.9937 70.9395 81.353 70.9395 81.0718ZM79.916 72.5405C79.8379 72.8687 79.7051 73.3921 79.5176 74.1108C79.3457 74.8296 79.2129 75.3921 79.1191 75.7983C78.9941 76.064 78.9707 76.1968 79.0488 76.1968C79.0801 76.1968 79.2598 76.0796 79.5879 75.8452C79.6504 75.7983 79.6973 75.7749 79.7285 75.7749C79.8691 75.6968 80.1426 75.4624 80.5488 75.0718C81.002 74.6655 81.3691 74.3999 81.6504 74.2749C81.9473 74.1343 82.2129 74.1265 82.4473 74.2515C82.6504 74.3608 82.752 74.5796 82.752 74.9077C82.7363 75.439 82.5801 76.2202 82.2832 77.2515C81.9863 78.2827 81.6973 78.939 81.416 79.2202C81.2754 79.3921 81.2207 79.5327 81.252 79.6421C81.2988 79.7515 81.4473 79.9233 81.6973 80.1577C81.9004 80.3452 82.0488 80.5093 82.1426 80.6499C82.252 80.7749 82.3613 80.8843 82.4707 80.978C82.5957 81.0718 82.877 81.2437 83.3145 81.4937C83.877 81.8374 84.2598 82.0874 84.4629 82.2437C84.6816 82.3843 84.8848 82.5327 85.0723 82.689C85.2598 82.8296 85.5176 83.0093 85.8457 83.228C86.0488 83.3687 86.502 83.7515 87.2051 84.3765C87.9238 84.9858 88.3613 85.3374 88.5176 85.4312C88.6426 85.5093 88.7207 85.5718 88.752 85.6187C88.8145 85.7437 88.8301 85.8999 88.7988 86.0874C88.7676 86.2749 88.6895 86.4312 88.5645 86.5562C88.4395 86.6812 88.3066 86.6968 88.166 86.603C87.9785 86.5093 87.5488 86.1265 86.877 85.4546C86.2207 84.7671 85.8066 84.3999 85.6348 84.353C85.5879 84.353 85.4316 84.2358 85.166 84.0015C84.6348 83.5171 83.7598 82.9077 82.541 82.1733C82.2129 81.9858 81.8066 81.6655 81.3223 81.2124C80.916 80.8218 80.6504 80.603 80.5254 80.5562C80.4004 80.5093 80.291 80.5796 80.1973 80.7671C80.1191 80.9077 80.0176 81.0327 79.8926 81.1421C79.7832 81.2515 79.6426 81.3608 79.4707 81.4702C79.3145 81.5796 79.1738 81.6968 79.0488 81.8218C78.7832 82.0405 78.5488 82.1968 78.3457 82.2905C78.1582 82.3843 77.9082 82.4468 77.5957 82.478C77.2363 82.5093 76.9785 82.4858 76.8223 82.4077C76.666 82.3296 76.627 82.189 76.7051 81.9858C76.7832 81.7827 76.9082 81.7358 77.0801 81.8452C77.2832 81.9702 77.6191 81.8765 78.0879 81.564C78.4473 81.3296 78.7676 81.0483 79.0488 80.7202C79.4551 80.2827 79.5801 80.0483 79.4238 80.0171C79.3926 80.0015 79.3145 79.978 79.1895 79.9468C79.0801 79.9155 78.9863 79.8921 78.9082 79.8765C78.8457 79.8608 78.7598 79.8374 78.6504 79.8062C78.5566 79.7749 78.4707 79.7515 78.3926 79.7358C78.3301 79.7046 78.2676 79.6812 78.2051 79.6655C78.1426 79.6343 78.0957 79.6108 78.0645 79.5952C78.0332 79.564 78.0176 79.5405 78.0176 79.5249C77.8145 79.3218 77.8691 79.1499 78.1816 79.0093C78.7129 78.8062 79.3066 78.8296 79.9629 79.0796C80.1191 79.1421 80.2363 79.1577 80.3145 79.1265C80.4551 79.0796 80.6738 78.7202 80.9707 78.0483C81.2832 77.3608 81.4707 76.8218 81.5332 76.4312C81.5332 76.3687 81.5645 76.2437 81.627 76.0562C81.6895 75.853 81.7207 75.6968 81.7207 75.5874C81.7363 75.478 81.7129 75.3687 81.6504 75.2593C81.6035 75.2593 81.377 75.4468 80.9707 75.8218C79.7832 76.9155 78.9473 77.4624 78.4629 77.4624C78.2754 77.4937 78.1348 77.4702 78.041 77.3921C77.9473 77.2983 77.9004 77.1733 77.9004 77.0171C77.9004 76.8608 77.916 76.7124 77.9473 76.5718C77.9785 76.4312 78.0254 76.2827 78.0879 76.1265C78.1973 75.814 78.291 75.4858 78.3691 75.1421C78.4629 74.7827 78.5566 74.3765 78.6504 73.9233C78.7598 73.4702 78.8457 73.1187 78.9082 72.8687C78.9863 72.6499 79.0254 72.4233 79.0254 72.189C79.0254 71.9546 79.0566 71.7905 79.1191 71.6968C79.3066 71.4624 79.541 71.4624 79.8223 71.6968C79.9316 71.8062 79.9863 71.9077 79.9863 72.0015C80.002 72.0796 79.9785 72.2593 79.916 72.5405Z" fill="white"/>
<path d="M121.52 111.955C121.691 112.096 121.926 112.244 122.223 112.4C122.535 112.541 122.793 112.635 122.996 112.682C123.23 112.807 123.355 112.971 123.371 113.174C123.387 113.377 123.309 113.58 123.137 113.783C122.965 113.986 122.801 114.158 122.645 114.299C122.504 114.424 122.371 114.533 122.246 114.627C122.137 114.549 122.16 114.361 122.316 114.064C122.473 113.752 122.504 113.533 122.41 113.408C122.316 113.377 122.176 113.338 121.988 113.291C121.816 113.229 121.66 113.166 121.52 113.104C121.379 113.041 121.238 112.947 121.098 112.822C120.27 112.26 120.09 111.893 120.559 111.721C120.949 111.596 121.27 111.674 121.52 111.955ZM113.645 114.439C113.676 114.314 113.699 114.236 113.715 114.205C113.73 114.174 113.777 114.143 113.855 114.111C113.934 114.064 114.043 114.064 114.184 114.111C114.543 114.127 114.723 114.252 114.723 114.486C114.707 114.674 114.426 115.182 113.879 116.01C113.348 116.838 113.082 117.299 113.082 117.393C113.082 117.471 113.16 117.51 113.316 117.51C113.473 117.51 113.598 117.549 113.691 117.627C113.801 117.689 113.879 117.807 113.926 117.979C113.973 118.135 114.004 118.283 114.02 118.424C114.035 118.549 114.043 118.736 114.043 118.986C114.059 119.221 114.074 119.393 114.09 119.502C114.199 120.502 114.23 121.807 114.184 123.416C114.152 125.01 114.051 126.244 113.879 127.119C113.816 127.338 113.699 127.486 113.527 127.564C113.371 127.627 113.215 127.588 113.059 127.447C112.902 127.291 112.91 126.752 113.082 125.83C113.176 125.361 113.223 124.268 113.223 122.549C113.238 121.486 113.238 120.783 113.223 120.439C113.207 120.08 113.168 119.736 113.105 119.408C113.043 119.08 112.988 118.611 112.941 118.002C112.863 117.893 112.777 117.947 112.684 118.166C112.652 118.244 112.629 118.33 112.613 118.424C112.582 118.627 112.418 118.947 112.121 119.385C111.824 119.822 111.598 120.088 111.441 120.182C111.145 120.354 110.941 120.338 110.832 120.135C110.785 120.057 110.824 119.869 110.949 119.572C111.09 119.26 111.387 118.635 111.84 117.697C112.215 116.932 112.527 116.369 112.777 116.01C113.027 115.65 113.316 115.127 113.645 114.439ZM122.949 125.127C122.887 125.127 122.598 125.205 122.082 125.361C121.582 125.518 121.262 125.58 121.121 125.549C120.48 125.611 120.238 125.338 120.395 124.729C120.457 124.572 120.551 124.463 120.676 124.4C120.801 124.338 121.051 124.283 121.426 124.236C121.91 124.158 122.152 124.088 122.152 124.025C122.152 123.994 122.105 123.963 122.012 123.932C121.855 123.869 121.746 123.775 121.684 123.65C121.637 123.51 121.613 123.268 121.613 122.924C121.629 122.018 121.613 121.15 121.566 120.322C121.535 119.494 121.488 119.064 121.426 119.033C121.395 119.049 121.207 119.166 120.863 119.385C120.535 119.588 120.262 119.744 120.043 119.854C119.84 119.963 119.652 120.025 119.48 120.041C119.152 120.197 118.902 120.127 118.73 119.83C118.574 119.533 118.598 119.252 118.801 118.986C118.801 118.893 118.918 118.877 119.152 118.939C119.387 118.986 119.527 119.002 119.574 118.986C120.34 118.596 121.121 118.096 121.918 117.486C122.73 116.861 123.426 116.221 124.004 115.564C124.207 115.314 124.371 115.189 124.496 115.189C124.715 115.205 124.855 115.291 124.918 115.447C124.98 115.588 124.941 115.752 124.801 115.939C124.723 116.049 124.301 116.479 123.535 117.229L122.41 118.354L122.434 118.869C122.48 119.072 122.52 119.9 122.551 121.354C122.582 122.807 122.605 123.604 122.621 123.744C123.074 123.197 123.457 122.518 123.77 121.705C124.098 120.893 124.254 120.033 124.238 119.127C124.301 117.752 124.387 116.947 124.496 116.713C124.574 116.588 124.668 116.541 124.777 116.572C124.902 116.588 124.996 116.682 125.059 116.854C125.121 117.01 125.16 117.166 125.176 117.322C125.191 117.479 125.191 117.893 125.176 118.564C125.176 118.83 125.176 119.01 125.176 119.104C125.176 119.197 125.168 119.322 125.152 119.479C125.152 119.635 125.152 119.729 125.152 119.76C125.152 119.775 125.137 119.846 125.105 119.971C125.09 120.08 125.082 120.143 125.082 120.158C125.082 120.174 125.066 120.26 125.035 120.416C125.004 120.557 124.98 120.658 124.965 120.721C124.887 121.096 124.785 121.455 124.66 121.799C124.551 122.127 124.402 122.479 124.215 122.854C124.043 123.229 123.91 123.518 123.816 123.721C123.863 123.814 124.098 123.822 124.52 123.744C124.801 123.682 125.582 123.611 126.863 123.533C128.16 123.455 128.957 123.377 129.254 123.299C129.395 123.252 129.527 123.244 129.652 123.275C129.777 123.291 129.902 123.291 130.027 123.275C130.152 123.26 130.254 123.205 130.332 123.111C130.504 122.877 130.816 122.916 131.27 123.229C131.395 123.416 131.387 123.658 131.246 123.955C131.105 124.236 130.895 124.346 130.613 124.283C130.504 124.283 130.121 124.307 129.465 124.354C128.809 124.385 128.34 124.416 128.059 124.447C127.793 124.463 127.355 124.494 126.746 124.541C126.137 124.588 125.652 124.635 125.293 124.682C124.934 124.729 124.527 124.791 124.074 124.869C123.637 124.947 123.262 125.033 122.949 125.127Z" fill="white"/>
<path d="M0.452148 4.85854C0.452148 2.49548 2.36779 0.579834 4.73085 0.579834C7.09392 0.579834 9.00956 2.49548 9.00956 4.85854C9.00956 7.2216 7.09392 9.13724 4.73085 9.13724C2.36779 9.13724 0.452148 7.2216 0.452148 4.85854Z" fill="white"/>
<path d="M16.1523 4.85854C16.1523 2.49548 18.068 0.579834 20.431 0.579834C22.7941 0.579834 24.7098 2.49548 24.7098 4.85854C24.7098 7.2216 22.7941 9.13724 20.431 9.13724C18.068 9.13724 16.1523 7.2216 16.1523 4.85854Z" fill="white"/>
<path d="M31.8525 4.85854C31.8525 2.49548 33.7682 0.579834 36.1312 0.579834C38.4943 0.579834 40.4099 2.49548 40.4099 4.85854C40.4099 7.2216 38.4943 9.13724 36.1312 9.13724C33.7682 9.13724 31.8525 7.2216 31.8525 4.85854Z" fill="white"/>
<path d="M47.5518 4.85854C47.5518 2.49548 49.4674 0.579834 51.8305 0.579834C54.1935 0.579834 56.1092 2.49548 56.1092 4.85854C56.1092 7.2216 54.1935 9.13724 51.8305 9.13724C49.4674 9.13724 47.5518 7.2216 47.5518 4.85854Z" fill="white"/>
<path d="M63.252 4.85854C63.252 2.49548 65.1676 0.579834 67.5307 0.579834C69.8937 0.579834 71.8094 2.49548 71.8094 4.85854C71.8094 7.2216 69.8937 9.13724 67.5307 9.13724C65.1676 9.13724 63.252 7.2216 63.252 4.85854Z" fill="white"/>
<path d="M78.9521 4.85854C78.9521 2.49548 80.8678 0.579834 83.2309 0.579834C85.5939 0.579834 87.5096 2.49548 87.5096 4.85854C87.5096 7.2216 85.5939 9.13724 83.2309 9.13724C80.8678 9.13724 78.9521 7.2216 78.9521 4.85854Z" fill="white"/>
<path d="M94.6523 4.85854C94.6523 2.49548 96.568 0.579834 98.931 0.579834C101.294 0.579834 103.21 2.49548 103.21 4.85854C103.21 7.2216 101.294 9.13724 98.931 9.13724C96.568 9.13724 94.6523 7.2216 94.6523 4.85854Z" fill="white"/>
<path d="M0.452148 99.2323C0.452148 96.8693 2.36779 94.9536 4.73085 94.9536C7.09392 94.9536 9.00956 96.8693 9.00956 99.2323C9.00956 101.595 7.09392 103.511 4.73085 103.511C2.36779 103.511 0.452148 101.595 0.452148 99.2323Z" fill="white"/>
<path d="M16.1523 99.2323C16.1523 96.8693 18.068 94.9536 20.431 94.9536C22.7941 94.9536 24.7098 96.8693 24.7098 99.2323C24.7098 101.595 22.7941 103.511 20.431 103.511C18.068 103.511 16.1523 101.595 16.1523 99.2323Z" fill="white"/>
<path d="M31.8525 99.2323C31.8525 96.8693 33.7682 94.9536 36.1312 94.9536C38.4943 94.9536 40.4099 96.8693 40.4099 99.2323C40.4099 101.595 38.4943 103.511 36.1312 103.511C33.7682 103.511 31.8525 101.595 31.8525 99.2323Z" fill="white"/>
<path d="M47.5518 97.5396C47.5518 96.1114 48.7096 94.9536 50.1378 94.9536H53.5231C54.9514 94.9536 56.1092 96.1114 56.1092 97.5397V100.925C56.1092 102.353 54.9514 103.511 53.5231 103.511H50.1378C48.7096 103.511 47.5518 102.353 47.5518 100.925V97.5396Z" fill="#FBB03B"/>
<path d="M63.252 97.5396C63.252 96.1114 64.4098 94.9536 65.838 94.9536H69.2233C70.6516 94.9536 71.8094 96.1114 71.8094 97.5397V100.925C71.8094 102.353 70.6516 103.511 69.2233 103.511H65.838C64.4098 103.511 63.252 102.353 63.252 100.925V97.5396Z" fill="#39B54A"/>
<path d="M78.9521 97.5396C78.9521 96.1114 80.11 94.9536 81.5382 94.9536H84.9235C86.3517 94.9536 87.5096 96.1114 87.5096 97.5397V100.925C87.5096 102.353 86.3517 103.511 84.9235 103.511H81.5382C80.11 103.511 78.9521 102.353 78.9521 100.925V97.5396Z" fill="#0EB1D2"/>
<path d="M94.6523 97.5396C94.6523 96.1114 95.8102 94.9536 97.2384 94.9536H100.624C102.052 94.9536 103.21 96.1114 103.21 97.5397V100.925C103.21 102.353 102.052 103.511 100.624 103.511H97.2384C95.8102 103.511 94.6523 102.353 94.6523 100.925V97.5396Z" fill="#D64933"/>
<path d="M47.6938 50.3531C47.6938 48.9249 48.8517 47.7671 50.2799 47.7671H53.6652C55.0934 47.7671 56.2513 48.9249 56.2513 50.3531V53.7385C56.2513 55.1667 55.0934 56.3245 53.6652 56.3245H50.2799C48.8517 56.3245 47.6938 55.1667 47.6938 53.7385V50.3531Z" fill="#D64933"/>
<path d="M63.394 50.3531C63.394 48.9249 64.5519 47.7671 65.9801 47.7671H69.3654C70.7936 47.7671 71.9515 48.9249 71.9515 50.3531V53.7385C71.9515 55.1667 70.7936 56.3245 69.3654 56.3245H65.9801C64.5519 56.3245 63.394 55.1667 63.394 53.7385V50.3531Z" fill="#0EB1D2"/>
<path d="M79.0938 50.3531C79.0938 48.9249 80.2516 47.7671 81.6798 47.7671H85.0651C86.4934 47.7671 87.6512 48.9249 87.6512 50.3531V53.7385C87.6512 55.1667 86.4934 56.3245 85.0651 56.3245H81.6798C80.2516 56.3245 79.0938 55.1667 79.0938 53.7385V50.3531Z" fill="#39B54A"/>
<path d="M94.7944 50.3531C94.7944 48.9249 95.9522 47.7671 97.3805 47.7671H100.766C102.194 47.7671 103.352 48.9249 103.352 50.3531V53.7385C103.352 55.1667 102.194 56.3245 100.766 56.3245H97.3805C95.9522 56.3245 94.7944 55.1667 94.7944 53.7385V50.3531Z" fill="#FBB03B"/>
<path d="M110.495 49.0601C110.495 48.346 111.074 47.7671 111.788 47.7671H117.759C118.473 47.7671 119.052 48.346 119.052 49.0601V55.0315C119.052 55.7456 118.473 56.3245 117.759 56.3245H111.788C111.074 56.3245 110.495 55.7456 110.495 55.0315V49.0601Z" fill="white"/>
<path d="M126.194 49.0601C126.194 48.346 126.773 47.7671 127.487 47.7671H133.458C134.172 47.7671 134.751 48.346 134.751 49.0601V55.0315C134.751 55.7456 134.172 56.3245 133.458 56.3245H127.487C126.773 56.3245 126.194 55.7456 126.194 55.0315V49.0601Z" fill="white"/>
<path d="M141.894 49.0601C141.894 48.346 142.473 47.7671 143.187 47.7671H149.158C149.873 47.7671 150.451 48.346 150.451 49.0601V55.0315C150.451 55.7456 149.873 56.3245 149.158 56.3245H143.187C142.473 56.3245 141.894 55.7456 141.894 55.0315V49.0601Z" fill="white"/>
<path d="M47.6938 143.434C47.6938 142.72 48.2728 142.141 48.9869 142.141H54.9582C55.6724 142.141 56.2513 142.72 56.2513 143.434V149.406C56.2513 150.12 55.6724 150.699 54.9582 150.699H48.9869C48.2728 150.699 47.6938 150.12 47.6938 149.406V143.434Z" fill="white"/>
<path d="M63.394 143.434C63.394 142.72 63.9729 142.141 64.6871 142.141H70.6584C71.3725 142.141 71.9515 142.72 71.9515 143.434V149.406C71.9515 150.12 71.3725 150.699 70.6584 150.699H64.6871C63.9729 150.699 63.394 150.12 63.394 149.406V143.434Z" fill="white"/>
<path d="M79.0942 143.434C79.0942 142.72 79.6731 142.141 80.3873 142.141H86.3586C87.0727 142.141 87.6516 142.72 87.6516 143.434V149.406C87.6516 150.12 87.0727 150.699 86.3586 150.699H80.3873C79.6731 150.699 79.0942 150.12 79.0942 149.406V143.434Z" fill="white"/>
<path d="M94.7944 143.434C94.7944 142.72 95.3733 142.141 96.0875 142.141H102.059C102.773 142.141 103.352 142.72 103.352 143.434V149.406C103.352 150.12 102.773 150.699 102.059 150.699H96.0875C95.3733 150.699 94.7944 150.12 94.7944 149.406V143.434Z" fill="white"/>
<path d="M110.495 143.434C110.495 142.72 111.074 142.141 111.788 142.141H117.759C118.473 142.141 119.052 142.72 119.052 143.434V149.406C119.052 150.12 118.473 150.699 117.759 150.699H111.788C111.074 150.699 110.495 150.12 110.495 149.406V143.434Z" fill="white"/>
<path d="M126.195 143.434C126.195 142.72 126.774 142.141 127.488 142.141H133.459C134.173 142.141 134.752 142.72 134.752 143.434V149.406C134.752 150.12 134.173 150.699 133.459 150.699H127.488C126.774 150.699 126.195 150.12 126.195 149.406V143.434Z" fill="white"/>
<path d="M141.895 143.434C141.895 142.72 142.474 142.141 143.188 142.141H149.159C149.874 142.141 150.452 142.72 150.452 143.434V149.406C150.452 150.12 149.874 150.699 149.159 150.699H143.188C142.474 150.699 141.895 150.12 141.895 149.406V143.434Z" fill="white"/>
<path d="M94.7944 20.8131C94.7944 18.4501 96.7101 16.5344 99.0731 16.5344C101.436 16.5344 103.352 18.4501 103.352 20.8131C103.352 23.1762 101.436 25.0918 99.0731 25.0918C96.7101 25.0918 94.7944 23.1762 94.7944 20.8131Z" fill="white"/>
<path d="M94.7944 36.4298C94.7944 34.0668 96.7101 32.1511 99.0731 32.1511C101.436 32.1511 103.352 34.0668 103.352 36.4298C103.352 38.7929 101.436 40.7085 99.0731 40.7085C96.7101 40.7085 94.7944 38.7929 94.7944 36.4298Z" fill="white"/>
<path d="M94.7944 66.1383C94.7944 64.7101 95.9522 63.5522 97.3805 63.5522H100.766C102.194 63.5522 103.352 64.7101 103.352 66.1383V69.5236C103.352 70.9518 102.194 72.1097 100.766 72.1097H97.3805C95.9522 72.1097 94.7944 70.9518 94.7944 69.5236V66.1383Z" fill="#39B54A"/>
<path d="M94.7944 81.7545C94.7944 80.3263 95.9522 79.1685 97.3805 79.1685H100.766C102.194 79.1685 103.352 80.3263 103.352 81.7545V85.1398C103.352 86.5681 102.194 87.7259 100.766 87.7259H97.3805C95.9522 87.7259 94.7944 86.5681 94.7944 85.1398V81.7545Z" fill="#0EB1D2"/>
<path d="M141.894 96.0772C141.894 95.3631 142.473 94.7842 143.187 94.7842H149.158C149.873 94.7842 150.451 95.3631 150.451 96.0772V102.049C150.451 102.763 149.873 103.342 149.158 103.342H143.187C142.473 103.342 141.894 102.763 141.894 102.049V96.0772Z" fill="white"/>
<path d="M141.894 64.8453C141.894 64.1311 142.473 63.5522 143.187 63.5522H149.158C149.873 63.5522 150.451 64.1312 150.451 64.8453V70.8166C150.451 71.5308 149.873 72.1097 149.158 72.1097H143.187C142.473 72.1097 141.894 71.5308 141.894 70.8166V64.8453Z" fill="white"/>
<path d="M141.894 80.4615C141.894 79.7474 142.473 79.1685 143.187 79.1685H149.158C149.873 79.1685 150.451 79.7474 150.451 80.4615V86.4328C150.451 87.147 149.873 87.7259 149.158 87.7259H143.187C142.473 87.7259 141.894 87.147 141.894 86.4328V80.4615Z" fill="white"/>
<path d="M141.894 111.863C141.894 111.149 142.473 110.57 143.187 110.57H149.158C149.873 110.57 150.451 111.149 150.451 111.863V117.834C150.451 118.549 149.873 119.127 149.158 119.127H143.187C142.473 119.127 141.894 118.549 141.894 117.834V111.863Z" fill="white"/>
<path d="M141.894 127.479C141.894 126.765 142.473 126.186 143.187 126.186H149.158C149.873 126.186 150.451 126.765 150.451 127.479V133.45C150.451 134.165 149.873 134.743 149.158 134.743H143.187C142.473 134.743 141.894 134.165 141.894 133.45V127.479Z" fill="white"/>
<path d="M47.6938 66.1383C47.6938 64.7101 48.8517 63.5522 50.2799 63.5522H53.6652C55.0934 63.5522 56.2513 64.7101 56.2513 66.1383V69.5236C56.2513 70.9518 55.0934 72.1097 53.6652 72.1097H50.2799C48.8517 72.1097 47.6938 70.9518 47.6938 69.5236V66.1383Z" fill="#0EB1D2"/>
<path d="M47.6938 81.7545C47.6938 80.3263 48.8517 79.1685 50.2799 79.1685H53.6652C55.0934 79.1685 56.2513 80.3263 56.2513 81.7545V85.1398C56.2513 86.5681 55.0934 87.7259 53.6652 87.7259H50.2799C48.8517 87.7259 47.6938 86.5681 47.6938 85.1398V81.7545Z" fill="#39B54A"/>
<path d="M47.6938 111.863C47.6938 111.149 48.2728 110.57 48.9869 110.57H54.9582C55.6724 110.57 56.2513 111.149 56.2513 111.863V117.834C56.2513 118.549 55.6724 119.127 54.9582 119.127H48.9869C48.2728 119.127 47.6938 118.549 47.6938 117.834V111.863Z" fill="white"/>
<path d="M47.6938 127.479C47.6938 126.765 48.2728 126.186 48.9869 126.186H54.9582C55.6724 126.186 56.2513 126.765 56.2513 127.479V133.45C56.2513 134.165 55.6724 134.743 54.9582 134.743H48.9869C48.2728 134.743 47.6938 134.165 47.6938 133.45V127.479Z" fill="white"/>
<path d="M0.452148 52.0458C0.452148 49.6827 2.36779 47.7671 4.73085 47.7671C7.09392 47.7671 9.00956 49.6827 9.00956 52.0458C9.00956 54.4089 7.09392 56.3245 4.73085 56.3245C2.36779 56.3245 0.452148 54.4089 0.452148 52.0458Z" fill="white"/>
<path d="M0.452148 20.8131C0.452148 18.4501 2.36779 16.5344 4.73085 16.5344C7.09392 16.5344 9.00956 18.4501 9.00956 20.8131C9.00956 23.1762 7.09392 25.0918 4.73085 25.0918C2.36779 25.0918 0.452148 23.1762 0.452148 20.8131Z" fill="white"/>
<path d="M0.452148 36.4298C0.452148 34.0668 2.36779 32.1511 4.73085 32.1511C7.09392 32.1511 9.00956 34.0668 9.00956 36.4298C9.00956 38.7929 7.09392 40.7085 4.73085 40.7085C2.36779 40.7085 0.452148 38.7929 0.452148 36.4298Z" fill="white"/>
<path d="M0.452148 67.831C0.452148 65.4679 2.36779 63.5522 4.73085 63.5522C7.09392 63.5522 9.00956 65.4679 9.00956 67.831C9.00956 70.194 7.09392 72.1097 4.73085 72.1097C2.36779 72.1097 0.452148 70.194 0.452148 67.831Z" fill="white"/>
<path d="M0.452148 83.4472C0.452148 81.0841 2.36779 79.1685 4.73085 79.1685C7.09392 79.1685 9.00956 81.0841 9.00956 83.4472C9.00956 85.8102 7.09392 87.7259 4.73085 87.7259C2.36779 87.7259 0.452148 85.8102 0.452148 83.4472Z" fill="white"/>
</svg>
